<svg xmlns="http://www.w3.org/2000/svg" xmlns:xlink="http://www.w3.org/1999/xlink" viewBox="0 0 1989.77 1367.27"><defs><style>.cls-1{isolation:isolate;}.cls-2{fill:url(#linear-gradient);}.cls-3{fill:url(#linear-gradient-2);}.cls-4{fill:url(#linear-gradient-3);}.cls-5{fill:url(#linear-gradient-4);}.cls-6,.cls-9{opacity:0.25;}.cls-6,.cls-8{mix-blend-mode:multiply;}.cls-10,.cls-11,.cls-7,.cls-9{fill:#fff;mix-blend-mode:screen;}.cls-7{opacity:0.5;}.cls-8{opacity:0.16;}.cls-10{opacity:0.4;}.cls-11{opacity:0.35;}.cls-12{fill:url(#linear-gradient-5);}.cls-13{fill:url(#linear-gradient-6);}.cls-14{fill:url(#linear-gradient-7);}.cls-15{fill:url(#linear-gradient-8);}</style><linearGradient id="linear-gradient" x1="1408.75" y1="971.39" x2="1408.75" y2="1280.39" gradientTransform="translate(456.38 2732.46) rotate(-90)" gradientUnits="userSpaceOnUse"><stop offset="0" stop-color="#ff2f5e"/><stop offset="0.25" stop-color="#fc2d5d"/><stop offset="0.46" stop-color="#f12759"/><stop offset="0.66" stop-color="#e01d52"/><stop offset="0.85" stop-color="#c70f48"/><stop offset="1" stop-color="#ad003e"/></linearGradient><linearGradient id="linear-gradient-2" x1="1408.75" y1="1966.68" x2="1408.75" y2="1306.69" gradientTransform="translate(456.38 2732.46) rotate(-90)" gradientUnits="userSpaceOnUse"><stop offset="0" stop-color="#ff2f5e"/><stop offset="0.3" stop-color="#eb2352"/><stop offset="0.91" stop-color="#b70532"/><stop offset="1" stop-color="#af002d"/></linearGradient><linearGradient id="linear-gradient-3" x1="725.11" y1="1125.14" x2="1151.08" y2="1125.14" gradientTransform="translate(456.38 2732.46) rotate(-90)" gradientUnits="userSpaceOnUse"><stop offset="0" stop-color="#ff005e"/><stop offset="0.34" stop-color="#f70057"/><stop offset="0.86" stop-color="#e30044"/><stop offset="1" stop-color="#dc003e"/></linearGradient><linearGradient id="linear-gradient-4" x1="1666.36" y1="1125.1" x2="2092.34" y2="1125.1" gradientTransform="translate(7.57 2092.39) rotate(-90)" gradientUnits="userSpaceOnUse"><stop offset="0" stop-color="#dc003e"/><stop offset="0.34" stop-color="#e40045"/><stop offset="0.86" stop-color="#f80058"/><stop offset="1" stop-color="#ff005e"/></linearGradient><linearGradient id="linear-gradient-5" x1="997.76" y1="899.8" x2="1173.11" y2="899.8" gradientUnits="userSpaceOnUse"><stop offset="0" stop-color="#e7003e"/><stop offset="0.6" stop-color="#c1003e"/><stop offset="1" stop-color="#ad003e"/></linearGradient><linearGradient id="linear-gradient-6" x1="882.79" y1="1610.69" x2="543.15" y2="1950.32" gradientUnits="userSpaceOnUse"><stop offset="0" stop-color="#ad003e"/><stop offset="1" stop-color="#ad003e"/></linearGradient><linearGradient id="linear-gradient-7" x1="808.58" y1="1484.91" x2="1143.93" y2="1484.91" gradientUnits="userSpaceOnUse"><stop offset="0" stop-color="#ad003e"/><stop offset="0.11" stop-color="#b70042"/><stop offset="0.71" stop-color="#eb0056"/><stop offset="1" stop-color="#ff005e"/></linearGradient><linearGradient id="linear-gradient-8" x1="450.73" y1="1226.94" x2="1121.73" y2="1226.94" gradientTransform="matrix(1, 0, 0, 1, 0, 0)" xlink:href="#linear-gradient"/></defs><g class="cls-1"><g id="Layer_3" data-name="Layer 3"><path class="cls-2" d="M1428.72,769.41l9.36,9.22a5.19,5.19,0,0,0,.92.66l50.5,49.31a6.65,6.65,0,0,1,1,.92l215,208.83,28.74,27.82v515.21l-104.94,101.78L1428.72,1878Z" transform="translate(-448.81 -640.08)"/><path class="cls-3" d="M1734.32,640.08l81.6,79.23,124.72,121,108.24,105.08.13.13,389.58,378.1-389.32,378-.39.39-109.56,106.4-123.4,119.7-81.6,79.24v-426l81.6-79.23,52.34-50.76,131.44-127.75-130.12-126.16-53.66-52.08-81.6-79.23Z" transform="translate(-448.81 -640.08)"/><path class="cls-4" d="M1734.32,1581.38v426l-.13-.14-296-125.11a.13.13,0,0,0-.13-.13l-9.36-4Z" transform="translate(-448.81 -640.08)"/><polygon class="cls-5" points="1285.5 0.05 1285.5 426.03 979.85 129.38 1285.5 0.05"/><path class="cls-6" d="M2049,945.54l389.58,378.1-389.32,378c30.33-33.62,61.7-65.92,92.55-98.88,31.38-32.56,62.89-65.13,94.79-97.29,31.64-32.43,63.94-64.08,95.85-96.11l87.27-85.7-87.27-85.56c-31.91-32-64.21-63.8-95.85-96.11-31.9-32.16-63.41-64.73-94.79-97.29C2110.84,1011.59,2079.46,979.29,2049,945.54Z" transform="translate(-448.81 -640.08)"/><path class="cls-7" d="M1428.72,890c2.24,41.26,3.43,82.39,5.14,123.53s2.51,82.39,3.7,123.53q2.76,123.39,3.69,246.92l.52,123.54-.39,123.53-1.06,123.4c-.39,33.74-1,67.49-1.71,101.38l34.8-32.3c17.27-15.82,34.41-31.64,51.82-47.2,34.67-31.11,69-62.62,104.15-93.21L1428.72,1878Z" transform="translate(-448.81 -640.08)"/><path class="cls-8" d="M1868.26,1451.39a1513.22,1513.22,0,0,0,71.06,357l-123.4,119.7-81.6,79.24v-426l81.6-79.23Z" transform="translate(-448.81 -640.08)"/><path class="cls-8" d="M1734.32,640.08l81.6,79.23,124.72,121c-39.29,125.91-61.43,245.35-71.06,357.15l-53.66-52.08-81.6-79.23Z" transform="translate(-448.81 -640.08)"/><path class="cls-9" d="M1438.08,778.63a5.19,5.19,0,0,0,.92.66l50.5,49.31a6.65,6.65,0,0,1,1,.92l215,208.83c4.35,5.54,6.59,8.83,6.59,8.83s-20.3-13.57-48.12-36.51c-14.11-11.34-30.06-25-46.8-40.21-8.18-7.52-17-15.16-25.45-23.47-8.57-8-17.27-16.35-26-24.65-8.44-8.57-16.87-17-25.18-25.32s-16.21-17-24-25.18c-15.3-16.34-29.4-32-41-45.88C1452.19,798.54,1438.08,778.63,1438.08,778.63Z" transform="translate(-448.81 -640.08)"/><path class="cls-10" d="M1455.09,831.9c19.77,390.36,72.51,664.85,131.57,856l-79.76,77.52a5.7,5.7,0,0,0-.92.92l-50.89,49.31Z" transform="translate(-448.81 -640.08)"/><path class="cls-9" d="M1604.85,1743.81c33.23,96.63,67.64,168.75,98.62,221.88l-13.58-5.8c-.13,0-.4-.14-.53-.14l-213.84-90.44,45.22-43.9.14-.13Z" transform="translate(-448.81 -640.08)"/><path class="cls-11" d="M1520.74,1825.41c-6.72,8.31-13.71,15.95-20.56,23.86-5.41,6.2-11.08,12.13-16.61,18.2,34.27,12.79,68.15,26.63,101.64,41.26,17.67,7.91,35.33,16.09,52.74,24.39,8.7,4.35,17.53,8.57,26.1,13.05s17.27,9,25.84,13.72c-.13,0-.4-.14-.53-.14l-213.84-90.44Z" transform="translate(-448.81 -640.08)"/><path class="cls-7" d="M1455.09,1202.09c1.32,25.58,2,51.15,2.9,76.73s1.19,51.15,1.85,76.6c1.31,51.15,1.05,102.3,1.58,153.45s-.4,102.31-.53,153.33c0,25.58-.66,51.15-1.19,76.73-.66,23.46-.92,46.93-1.71,70.4,16-14.37,31.77-29,48-43l-50.89,49.31Z" transform="translate(-448.81 -640.08)"/><path class="cls-12" d="M1099.16,991,991,1099.18v.12l-.26.26-30.17,30.18c4.77-6.06,9.41-12.25,13.67-18.57a405.88,405.88,0,0,0,45.13-82.92,421.69,421.69,0,0,0-1.16-320v-.12a1.85,1.85,0,0,1-.26-.78c-5.41-12.77-11.47-25.4-18-37.53a188.36,188.36,0,0,1,68.74,27.47c2.84,1.81,5.54,3.74,8.25,5.68a.4.4,0,0,1,.26.13v.12a177.8,177.8,0,0,1,22.05,18.83A190.07,190.07,0,0,1,1099.16,991Z" transform="translate(-448.81 -640.08)"/><path class="cls-13" d="M975,1787.33l-164.3,164.3a190.06,190.06,0,0,1-268.89,0,186.71,186.71,0,0,1-23.35-28.5c-.25-.26-.38-.51-.64-.77s-.26-.26-.26-.39c-48.75-73.77-40.62-174.23,24.25-239.1l164.3-164.3,14.83,14.83.13.13L945.7,1758.06l.12.13Z" transform="translate(-448.81 -640.08)"/><path class="cls-14" d="M1109.35,1653,984.9,1777.4l-9.93,9.93-8.38-9.8a692.89,692.89,0,0,1-49.65-64.61s-.26-.39-.91-1.16c-148.95-220.92-78.15-409.46-34.17-488.91a2.52,2.52,0,0,1,.51-1h.13c0-.13,0-.13.13-.26v-.13c14.06-25.14,25.15-38.94,25.15-38.94l71.44,71.44,130.13,130.13a187.69,187.69,0,0,1,37.53,53.39c0,.13.13.26.13.39A189.94,189.94,0,0,1,1109.35,1653Z" transform="translate(-448.81 -640.08)"/><path class="cls-8" d="M1019.33,1028.25a421.69,421.69,0,0,0-1.16-320v-.12a1.85,1.85,0,0,1-.26-.78c-5.41-12.77-11.47-25.4-18-37.53a188.36,188.36,0,0,1,68.74,27.47c31,81.9,51.71,233.17-94.4,413.85A405.88,405.88,0,0,0,1019.33,1028.25Z" transform="translate(-448.81 -640.08)"/><path class="cls-8" d="M991,1787.33H975l-8.38-9.8a692.89,692.89,0,0,1-49.65-64.61s-.26-.39-.91-1.16c-148.95-220.92-78.15-409.46-34.17-488.91a2.52,2.52,0,0,1,.51-1h.13c0-.13,0-.13.13-.26v-.13c14.06-25.14,25.15-38.94,25.15-38.94l71.44,71.44c-54.93,95.18-134,297.4,5.68,523.47C986.71,1780.75,988.77,1784,991,1787.33Z" transform="translate(-448.81 -640.08)"/><path class="cls-8" d="M975,1787.33c-155-134.12-287.85-166.75-365.49-172.17l96.6-96.59,14.83,14.83.13.13L945.7,1758.06l.12.13Z" transform="translate(-448.81 -640.08)"/><path class="cls-15" d="M1050.28,869.75c0,8.12-.25,16.12-.77,24.11-.26,5.55-.64,11.1-1.16,16.51-.13,1.16-.26,2.32-.39,3.61-.51,4.9-1,9.8-1.8,14.58-.26,1.93-.52,4-.91,5.93-.77,5.8-1.8,11.48-3,17.15-1.29,6.71-2.71,13.28-4.39,19.73s-3.35,13-5.28,19.35a375.92,375.92,0,0,1-13.16,37.27.4.4,0,0,1-.13.26q-5.42,13.92-12,27.08c-2.19,4.38-4.51,8.77-6.84,13.15-1.54,3-3.09,5.81-4.9,8.77s-3.48,6.19-5.41,9.29a11.1,11.1,0,0,1-1.16,2.06c-2.58,4.26-5.16,8.51-8,12.64l-.77,1.16c-3,4.64-6.19,9.16-9.42,13.67s-6.83,9.16-10.31,13.67a.13.13,0,0,1-.13.13l-52.62,52.62s-4.39,5.41-11.09,15.6q-2.91,4.46-6.58,10.45c-.39.64-.9,1.42-1.29,2.19-1.93,3.35-4,6.84-6.19,10.7v.13c-.13.13-.13.13-.13.26h-.13a2.52,2.52,0,0,0-.51,1,435.86,435.86,0,0,0-22.57,47.33c-1.29,3.1-2.58,6.19-3.74,9.42s-2.45,6.58-3.61,9.93a421,421,0,0,0-16.12,57c-.91,3.48-1.55,7-2.2,10.58-1.41,6.83-2.45,13.79-3.48,21-.9,6.45-1.68,13-2.19,19.73a67.5,67.5,0,0,0-.64,7.35c-.39,4-.65,8-.78,12.12a436,436,0,0,0,14.19,132.45c1.29,4.9,2.71,9.93,4.25,15q5.41,18.38,12.77,37.14c1.42,3.61,2.84,7.09,4.39,10.58,1.54,3.74,3.09,7.48,4.77,11.22s3.35,7.48,5.16,11.22,3.61,7.61,5.54,11.34a596.48,596.48,0,0,0,37.66,64.49c.26.38.51.64.77,1,.65.77.91,1.16.91,1.16,5.8,8.77,12.12,17.54,18.82,26.44,9.55,12.64,19.87,25.53,31,38.43,2.7,3.22,5.41,6.32,8.25,9.54l-29.15-29.14-.12-.13L721.55,1533.92l-.51-.39-.13-.13-14.83-14.83L560,1372.32l-.51-.51-.13-.13c-.13,0-.39-.26-.52-.39l-54.29-54.42a187.17,187.17,0,0,1-40.11-59.2A189.78,189.78,0,0,1,504.51,1048L830.4,722.08a190.37,190.37,0,0,1,169.46-52.23c3.22,6.06,6.45,12.25,9.41,18.57,2.58,5.16,4.9,10.45,7.23,15.74a34.61,34.61,0,0,0,1.41,3.22.57.57,0,0,1,.13.39.94.94,0,0,0,.13.51c2.58,6.19,5,12.51,7.35,18.83s4.39,12.77,6.45,19.22v.39q2.52,8.12,4.64,16.25c.65,2.32,1.29,4.64,1.81,7,1.16,4.51,2.19,9,3.1,13.67,2.19,10.83,4,21.67,5.41,32.76.52,4.38,1,8.77,1.42,13.15s.77,8.77,1,13.28.52,8.9.65,13.42S1050.28,865.23,1050.28,869.75Z" transform="translate(-448.81 -640.08)"/><path class="cls-6" d="M1109.35,1653,975,1787.33l-164.3,164.3a190.06,190.06,0,0,1-268.89,0,186.71,186.71,0,0,1-23.35-28.5c1,1.42,3.1,3.87,5.94,7.35a205.71,205.71,0,0,0,22.18,22.18,189.86,189.86,0,0,0,39.85,26.7,194.81,194.81,0,0,0,58.68,17.8,187.81,187.81,0,0,0,71.31-4c24.64-6.06,48.88-18.18,70.29-35.47a169.2,169.2,0,0,0,15.22-13.92c5.16-5.29,10.32-10.58,15.6-15.87l31.73-32.5c21.54-21.79,43.46-43.84,65.26-65.9,17.28-17,34.56-34.17,51.58-51.07l.65-.64c4.64-4.52,9.15-9,13.67-13.54,21.53-21.54,43.33-42.3,64.22-62.68q31.34-30.18,60.23-57.9a206.74,206.74,0,0,0,23.73-28.63,177,177,0,0,0,16.63-30.57,190.55,190.55,0,0,0,12.77-107.3c-2.58-13.15-5.29-23.47-7.74-30.31-1.55-4.38-2.58-7.35-3.22-9A189.94,189.94,0,0,1,1109.35,1653Z" transform="translate(-448.81 -640.08)"/><path class="cls-7" d="M951.88,667c-1.41.13-4.77.64-10,1.54-7.1,1.16-17.16,3.74-29.67,7.87a190.14,190.14,0,0,0-42.3,20.89A193.34,193.34,0,0,0,847.29,715c-7.48,6.71-14.57,14.57-22.44,23.08-31.2,33.54-68,72.23-107.68,113.24-20,20.37-40.62,41.52-61.52,63.06-21.15,21.28-42.56,42.94-64,64.61-21.67,21.41-43.34,42.95-64.61,64-5.16,5.16-11.1,10.83-15.48,15.47l-7.74,8.13-6.45,7.74c-8.25,10.7-15.86,22.31-21.4,34.43a184.23,184.23,0,0,0-17.42,75.18c-.64,25,4.39,48.5,12,69.13a187.47,187.47,0,0,0,29.66,52.23c11.61,13.8,23.21,25.79,32,35.73,15.35,17,24.89,28,27.09,30.69-.13,0-.39-.26-.52-.39l-54.29-54.42a187.17,187.17,0,0,1-40.11-59.2A189.78,189.78,0,0,1,504.51,1048L830.4,722.08A188.44,188.44,0,0,1,951.88,667Z" transform="translate(-448.81 -640.08)"/><path class="cls-6" d="M1077.11,703.13v.12l-.26-.25A.4.4,0,0,1,1077.11,703.13Z" transform="translate(-448.81 -640.08)"/><path class="cls-6" d="M1099.16,991,991,1099.18c2.45-3.1,20-26.44,47.59-58,14.83-17.15,32.5-36.75,51.71-57.39,4.52-5.16,8.9-10.57,13.55-15.86,3.48-5.67,7.6-10.7,11.09-16.64s7.22-11.86,9.8-18.44l4.38-9.54,3.36-9.93c4.9-13.16,7.48-27.08,9.15-40.76.9-13.79,1.81-27.59,0-40.75-.39-3.22-.77-6.58-1-9.8-.64-3.22-1.29-6.32-1.93-9.54A134.84,134.84,0,0,0,1134,794.3c-1.42-6.06-4-11.47-6.06-16.89-1.8-5.55-4.64-10.45-7-15.35a99,99,0,0,0-7.74-13.67c-2.58-4.25-4.77-8.51-7.74-12-2.58-3.61-5.16-7-7.48-10.06-1.8-2.84-5-5.55-7.09-8-7.87-8.51-12.77-13.93-13.8-15.09a177.8,177.8,0,0,1,22.05,18.83A190.07,190.07,0,0,1,1099.16,991Z" transform="translate(-448.81 -640.08)"/><path class="cls-7" d="M945.7,1758.06,721,1533.53c1.93,1.29,17.92,12.38,39.46,30.56,11.61,9.42,24.76,20.9,38.43,33.53,6.84,6.45,14.06,12.77,21,19.74S834,1631.16,841.1,1638c13.93,14.32,27.86,28.37,40.37,42.3,12.64,13.67,24.12,26.83,33.66,38.3C933.31,1740.13,944.41,1756.12,945.7,1758.06Z" transform="translate(-448.81 -640.08)"/><path class="cls-7" d="M882.5,1221.82h-.13l.26-.26C882.5,1221.69,882.5,1221.69,882.5,1221.82Z" transform="translate(-448.81 -640.08)"/><path class="cls-7" d="M916,1711.76c-1.8-2.32-6.32-8.13-12.76-16.64-4.26-5.8-9.42-12.76-15.35-20.76-5.29-8.51-11.09-18.19-17.28-28.89-6.71-10.45-12.13-22.7-18.06-35.59-6.45-12.77-11.35-27-16.25-41.66a163.7,163.7,0,0,1-6.83-22.7q-3.11-11.6-5.81-23.6c-1.8-8-2.58-16.25-4-24.5-1.16-8.13-2.71-16.38-3-24.76-.52-8.26-.9-16.64-1.29-24.89,0-8.26.26-16.51.52-24.76a169.19,169.19,0,0,1,1.8-24.25c1.16-8,1.55-15.86,3.23-23.47,1.41-7.74,2.83-15.22,4.25-22.57,1.81-7.22,3.87-14.31,5.68-21.15,3.61-13.8,8.51-26.31,13-37.92A320.11,320.11,0,0,1,857.87,1263c4.26-9,9-16.38,12.51-22.7s7-10.7,9-13.93c1-1.54,1.8-2.7,2.45-3.48a435.86,435.86,0,0,0-22.57,47.33c-1.29,3.1-2.58,6.19-3.74,9.42s-2.45,6.58-3.61,9.93a421,421,0,0,0-16.12,57c-.91,3.48-1.55,7-2.2,10.58-1.41,6.83-2.45,13.79-3.48,21-.9,6.45-1.68,13-2.19,19.73a67.5,67.5,0,0,0-.64,7.35c-.39,4-.65,8-.78,12.12a436,436,0,0,0,14.19,132.45c1.29,4.9,2.71,9.93,4.25,15q5.41,18.38,12.77,37.14c1.42,3.61,2.84,7.09,4.39,10.58,1.54,3.74,3.09,7.48,4.77,11.22s3.35,7.48,5.16,11.22,3.61,7.61,5.54,11.34A574.19,574.19,0,0,0,916,1711.76Z" transform="translate(-448.81 -640.08)"/><path class="cls-7" d="M1050.28,869.75c0,8.12-.25,16.12-.77,24.11-.26,5.55-.64,11.1-1.16,16.51-.13,1.16-.26,2.32-.39,3.61-.51,4.9-1,9.8-1.8,14.58-.26,1.93-.52,4-.91,5.93-.77,5.8-1.8,11.48-3,17.15-1.29,6.71-2.71,13.28-4.39,19.73s-3.35,13-5.28,19.35a375.92,375.92,0,0,1-13.16,37.27c.39-1.68,1.29-6.32,2.84-13.41,2.06-8.77,4.64-21.41,7.35-36.37s5.29-32.63,7-51.33c1.17-9.42,1.42-19.22,2.07-29s.77-19.86.64-29.92c.13-10.06-.26-20.12-.77-29.92-.77-9.93-1.29-19.6-2.32-29-2.07-18.83-4.77-36.24-7.48-51.33s-5.68-27.47-7.61-36.37c-1.55-6.58-2.58-11.09-3-13,2.58,6.19,5,12.51,7.35,18.83s4.39,12.77,6.45,19.22v.39q2.52,8.12,4.64,16.25c.65,2.32,1.29,4.64,1.81,7,1.16,4.51,2.19,9,3.1,13.67,2.19,10.83,4,21.67,5.41,32.76.52,4.38,1,8.77,1.42,13.15s.77,8.77,1,13.28.52,8.9.65,13.42S1050.28,865.23,1050.28,869.75Z" transform="translate(-448.81 -640.08)"/><path class="cls-11" d="M724.52,1482.33,587.3,1345l-10.7-11.86h-1.29l-43.46-43.59a151.61,151.61,0,0,1,0-214.21l325.89-325.9a150.18,150.18,0,0,1,96.6-43.84c3.74-.26,7.09-.39,10.44-.39s6.58.13,9.8.39C585.88,1009.55,653.59,1325.77,724.52,1482.33Z" transform="translate(-448.81 -640.08)"/></g></g></svg>