<svg width="1934" height="312" viewBox="0 0 1934 312" fill="none" xmlns="http://www.w3.org/2000/svg">
<g clip-path="url(#clip0)">
<path d="M527.045 197.372C569.409 199.691 598.09 200.85 613.087 200.85C616.643 200.85 619.426 199.845 621.436 197.835C623.601 195.671 624.683 192.811 624.683 189.254V168.382H571.342C555.107 168.382 543.279 164.748 535.858 157.481C528.591 150.06 524.958 138.232 524.958 121.998V115.04C524.958 98.8056 528.591 87.055 535.858 79.7882C543.279 72.3667 555.107 68.656 571.342 68.656H652.746V101.125H580.618C571.342 101.125 566.703 105.763 566.703 115.04V119.678C566.703 128.955 571.342 133.594 580.618 133.594H622.364C637.516 133.594 648.648 137.15 655.76 144.262C662.873 151.374 666.429 162.506 666.429 177.658V189.254C666.429 204.407 662.873 215.539 655.76 222.651C648.648 229.763 637.516 233.319 622.364 233.319C614.479 233.319 606.13 233.165 597.317 232.855L575.98 231.928C560.209 231.155 543.898 230.072 527.045 228.681V197.372ZM725.55 110.402C740.548 107.309 753.69 105.763 764.977 105.763H775.413C785.927 105.763 794.353 108.933 800.692 115.272C807.032 121.611 810.201 130.037 810.201 140.551V231H769.615V145.19C769.615 142.87 768.842 140.938 767.296 139.392C765.75 137.845 763.817 137.072 761.498 137.072H753.381C747.505 137.072 742.094 137.382 737.146 138C732.353 138.619 728.488 139.082 725.55 139.392V231H684.964V68.656H725.55V110.402ZM882.069 112.721V231H841.483V144.03H824.089V112.721H882.069ZM841.483 66.3368H882.069V98.8056H841.483V66.3368ZM973.75 139.392C965.555 139.392 956.279 140.938 945.92 144.03V231H905.334V108.082H941.281L943.6 119.678C950.867 114.885 958.289 111.407 965.865 109.242C973.595 106.923 980.089 105.763 985.346 105.763H995.782C1006.3 105.763 1014.72 108.933 1021.06 115.272C1027.4 121.611 1030.57 130.037 1030.57 140.551V231H989.984V147.509C989.984 145.19 989.211 143.257 987.665 141.711C986.119 140.165 984.186 139.392 981.867 139.392H973.75ZM1102.44 112.721V231H1061.85V144.03H1044.46V112.721H1102.44ZM1061.85 66.3368H1102.44V98.8056H1061.85V66.3368ZM1194.12 139.392C1185.92 139.392 1176.65 140.938 1166.29 144.03V231H1125.7V108.082H1161.65L1163.97 119.678C1171.24 114.885 1178.66 111.407 1186.23 109.242C1193.96 106.923 1200.46 105.763 1205.72 105.763H1216.15C1226.67 105.763 1235.09 108.933 1241.43 115.272C1247.77 121.611 1250.94 130.037 1250.94 140.551V231H1210.35V147.509C1210.35 145.19 1209.58 143.257 1208.03 141.711C1206.49 140.165 1204.56 139.392 1202.24 139.392H1194.12ZM1351.8 221.723C1336.8 224.815 1323.66 226.362 1312.37 226.362H1304.25C1293.74 226.362 1285.31 223.192 1278.97 216.853C1272.64 210.514 1269.47 202.087 1269.47 191.574V145.19C1269.47 133.594 1272.71 124.549 1279.21 118.055C1285.86 111.407 1294.98 108.082 1306.57 108.082H1392.38V237.958C1392.38 248.471 1389.21 256.898 1382.88 263.237C1376.54 269.576 1368.11 272.746 1357.6 272.746C1333.32 272.746 1306.26 271.199 1276.42 268.107V237.958C1305.95 240.277 1328.37 241.436 1343.68 241.436C1346 241.436 1347.93 240.663 1349.48 239.117C1351.02 237.571 1351.8 235.638 1351.8 233.319V221.723ZM1323.97 195.052C1333.71 195.052 1342.98 194.279 1351.8 192.733V139.392H1319.33C1313.14 139.392 1310.05 142.484 1310.05 148.668V186.935C1310.05 189.254 1310.83 191.187 1312.37 192.733C1313.92 194.279 1315.85 195.052 1318.17 195.052H1323.97ZM1577.9 68.656C1595.37 68.656 1608.59 73.2171 1617.56 82.3393C1626.68 91.3069 1631.24 104.526 1631.24 121.998V177.658C1631.24 195.13 1626.68 208.426 1617.56 217.549C1608.59 226.516 1595.37 231 1577.9 231H1487.45V68.656H1577.9ZM1589.5 121.998C1589.5 108.082 1582.54 101.125 1568.62 101.125H1529.2V198.531H1568.62C1582.54 198.531 1589.5 191.574 1589.5 177.658V121.998ZM1708.87 199.691C1717.07 199.691 1726.34 198.145 1736.7 195.052V108.082H1777.29V231H1741.34L1739.02 219.404C1731.76 224.197 1724.26 227.753 1716.53 230.072C1708.95 232.237 1702.53 233.319 1697.28 233.319H1686.84C1676.33 233.319 1667.9 230.15 1661.56 223.81C1655.22 217.471 1652.05 209.045 1652.05 198.531V108.082H1692.64V191.574C1692.64 193.893 1693.41 195.825 1694.96 197.372C1696.5 198.918 1698.44 199.691 1700.76 199.691H1708.87ZM1882.73 145.19C1882.73 142.87 1881.96 140.938 1880.41 139.392C1878.87 137.845 1876.93 137.072 1874.61 137.072H1868.82C1862.32 137.072 1856.68 137.382 1851.89 138C1847.25 138.619 1843.61 139.082 1840.99 139.392V199.691H1873.45C1879.64 199.691 1882.73 196.599 1882.73 190.414V145.19ZM1840.99 110.402C1855.98 107.309 1869.13 105.763 1880.41 105.763H1888.53C1899.04 105.763 1907.47 108.933 1913.81 115.272C1920.15 121.611 1923.32 130.037 1923.32 140.551V193.893C1923.32 205.489 1919.99 214.611 1913.34 221.259C1906.85 227.753 1897.81 231 1886.21 231H1800.4V68.656H1840.99V110.402Z" fill="white"/>
<path d="M223.48 29.5L225.61 31.61C225.674 31.6675 225.745 31.7178 225.82 31.76L237.38 42.98C237.467 43.0413 237.548 43.1116 237.62 43.19L286.67 90.82L293.22 97.1699V214.69L269.29 237.98L223.48 282.38V29.5Z" fill="url(#paint0_linear)"/>
<path d="M293.22 -0.0200043L311.84 18.06L340.29 45.66L364.97 69.66L453.87 155.98L365.06 242.19L364.97 242.28L339.97 266.55L311.83 293.86L293.21 311.93V214.77L311.83 196.69L323.77 185.12L353.77 155.98L324.09 127.2L311.85 115.32L293.23 97.25L293.22 -0.0200043Z" fill="url(#paint1_linear)"/>
<path d="M293.22 214.72V311.88L225.71 283.34L223.58 282.44L293.22 214.72Z" fill="url(#paint2_linear)"/>
<path d="M293.23 0.00999451V97.18L223.5 29.51L293.23 0.00999451Z" fill="url(#paint3_linear)"/>
<g style="mix-blend-mode:multiply" opacity="0.25">
<path d="M365 69.6799L453.87 155.98L365.06 242.19C371.98 234.53 379.14 227.19 386.18 219.64C393.22 212.09 400.52 204.78 407.8 197.45C415.08 190.12 422.38 182.83 429.66 175.52L449.57 155.98L429.66 136.46C422.38 129.15 415.01 121.91 407.8 114.54C400.59 107.17 393.33 99.77 386.18 92.34C379.03 84.91 371.95 77.3799 365 69.6799Z" fill="black"/>
</g>
<g style="mix-blend-mode:screen" opacity="0.5">
<path d="M223.48 56.98C223.99 66.39 224.26 75.78 224.65 85.16C225.04 94.54 225.22 103.95 225.49 113.34C225.91 132.1 226.19 150.873 226.33 169.66L226.45 197.84L226.36 226.01L226.12 254.16C226.03 261.86 225.88 269.56 225.73 277.29L233.67 269.92C237.61 266.31 241.52 262.7 245.49 259.15C253.4 252.06 261.22 244.87 269.25 237.89L223.48 282.38V56.98Z" fill="white"/>
</g>
<g style="mix-blend-mode:multiply" opacity="0.16">
<path d="M323.78 185.07C325.884 212.766 331.323 240.107 339.98 266.5L311.84 293.81L293.22 311.88V214.72L311.84 196.64L323.78 185.07Z" fill="black"/>
</g>
<g style="mix-blend-mode:multiply" opacity="0.16">
<path d="M293.22 -0.0200043L311.84 18.06L340.29 45.66C331.945 72.1477 326.51 99.4654 324.08 127.13L311.84 115.25L293.22 97.1799V-0.0200043Z" fill="black"/>
</g>
<g style="mix-blend-mode:screen" opacity="0.25">
<path d="M225.65 31.61C225.714 31.6675 225.785 31.7178 225.86 31.76L237.38 42.98C237.467 43.0413 237.548 43.1116 237.62 43.19L286.67 90.82C287.67 92.08 288.17 92.82 288.17 92.82C288.17 92.82 283.54 89.72 277.17 84.49C273.96 81.9 270.32 78.77 266.5 75.31C264.63 73.6 262.62 71.86 260.69 69.96C258.76 68.06 256.76 66.23 254.77 64.34C252.78 62.45 250.92 60.46 249.03 58.56C247.14 56.66 245.33 54.68 243.55 52.82C240.07 49.09 236.85 45.51 234.2 42.35C228.87 36.15 225.65 31.61 225.65 31.61Z" fill="white"/>
</g>
<g style="mix-blend-mode:screen" opacity="0.4">
<path d="M229.53 43.76C234.04 132.76 246.07 195.41 259.53 239.02L241.34 256.7C241.263 256.762 241.192 256.833 241.13 256.91L229.52 268.16L229.53 43.76Z" fill="white"/>
</g>
<g style="mix-blend-mode:screen" opacity="0.25">
<path d="M263.69 251.77C271.27 273.77 279.12 290.26 286.19 302.38L283.09 301.05H282.97L234.19 280.43L244.51 270.43L263.69 251.77Z" fill="white"/>
</g>
<g style="mix-blend-mode:screen" opacity="0.35">
<path d="M244.48 270.38C242.94 272.28 241.35 274.02 239.78 275.82C238.55 277.24 237.26 278.59 236 279.97C243.81 282.89 251.54 286.05 259.18 289.39C263.18 291.19 267.24 293.06 271.18 294.95C273.18 295.95 275.18 296.95 277.18 297.95C279.18 298.95 281.12 299.95 283.08 301.07H282.96L234.18 280.45L244.48 270.38Z" fill="white"/>
</g>
<g style="mix-blend-mode:screen" opacity="0.5">
<path d="M229.53 128.2C229.83 134.03 229.98 139.87 230.19 145.7C230.4 151.53 230.46 157.37 230.61 163.17C230.91 174.84 230.85 186.51 230.97 198.17C231.09 209.83 230.88 221.5 230.85 233.17C230.85 239.01 230.7 244.84 230.58 250.67C230.43 256.03 230.37 261.38 230.19 266.73C233.83 263.45 237.44 260.12 241.14 256.93L229.53 268.18V128.2Z" fill="white"/>
</g>
<path d="M148.34 80.0401L123.66 104.73L123.6 104.79L116.72 111.68C117.81 110.29 118.87 108.88 119.84 107.44C123.997 101.56 127.451 95.2138 130.13 88.53C139.636 65.1072 139.542 38.8845 129.87 15.53C129.838 15.4781 129.818 15.4202 129.81 15.36C128.57 12.44 127.19 9.55994 125.69 6.79994C131.28 7.82686 136.61 9.95477 141.37 13.06C142.02 13.47 142.64 13.91 143.25 14.36C143.269 14.3531 143.291 14.3531 143.31 14.36C145.091 15.6553 146.763 17.0935 148.31 18.66C152.35 22.6842 155.555 27.4658 157.744 32.7311C159.932 37.9964 161.06 43.6418 161.063 49.3438C161.066 55.0457 159.943 60.6922 157.76 65.9596C155.577 71.227 152.376 76.012 148.34 80.0401V80.0401Z" fill="url(#paint4_linear)"/>
<path d="M120.01 261.7L82.5399 299.17C78.5132 303.199 73.732 306.396 68.4695 308.576C63.207 310.757 57.5664 311.88 51.8699 311.88C46.1735 311.88 40.5328 310.757 35.2703 308.576C30.0078 306.396 25.2266 303.199 21.1999 299.17C19.2151 297.185 17.4329 295.008 15.8799 292.67C15.8199 292.61 15.7899 292.55 15.7299 292.49C15.6699 292.43 15.6699 292.49 15.6699 292.41C10.178 284.07 7.7293 274.092 8.73664 264.157C9.74397 254.222 14.1457 244.938 21.1999 237.87L58.6799 200.39L62.0599 203.77L113.34 254.98L120.01 261.7Z" fill="url(#paint5_linear)"/>
<path d="M150.67 231.04L122.28 259.43L120.01 261.7L118.1 259.46C114.04 254.774 110.26 249.852 106.78 244.72C106.715 244.629 106.645 244.542 106.57 244.46C72.57 194.07 88.74 151.06 98.77 132.94C98.7903 132.852 98.8314 132.769 98.89 132.7V132.7C98.89 132.7 98.89 132.7 98.89 132.64C100.578 129.541 102.497 126.572 104.63 123.76L120.92 140.06L150.61 169.74C154.152 173.27 157.048 177.392 159.17 181.92C159.17 181.92 159.17 181.98 159.17 182C162.963 190.057 164.182 199.087 162.661 207.862C161.14 216.636 156.953 224.729 150.67 231.04V231.04Z" fill="url(#paint6_linear)"/>
<g style="mix-blend-mode:multiply" opacity="0.16">
<path d="M130.13 88.5499C139.636 65.1271 139.542 38.9044 129.87 15.5499C129.838 15.498 129.818 15.4402 129.81 15.38C128.57 12.46 127.19 9.57996 125.69 6.81996C131.28 7.84688 136.61 9.97479 141.37 13.08C148.43 31.76 153.17 66.27 119.84 107.48C123.998 101.594 127.452 95.2406 130.13 88.5499V88.5499Z" fill="black"/>
</g>
<g style="mix-blend-mode:multiply" opacity="0.16">
<path d="M123.66 261.7H120.01L118.1 259.46C114.04 254.774 110.26 249.852 106.78 244.72C106.715 244.629 106.645 244.542 106.57 244.46C72.57 194.07 88.74 151.06 98.77 132.94C98.7903 132.852 98.8314 132.769 98.89 132.7C98.89 132.7 98.89 132.7 98.89 132.64C100.578 129.541 102.497 126.572 104.63 123.76L120.92 140.06C108.39 161.77 90.36 207.89 122.22 259.46C122.69 260.19 123.16 260.98 123.66 261.7Z" fill="black"/>
</g>
<g style="mix-blend-mode:multiply" opacity="0.16">
<path d="M120.01 261.7C84.6499 231.1 54.3499 223.7 36.6499 222.42L58.6499 200.42L62.0299 203.8L113.34 254.98L120.01 261.7Z" fill="black"/>
</g>
<path d="M137.19 52.3901C137.19 54.2501 137.13 56.0701 137.02 57.8901C136.96 59.1601 136.87 60.4201 136.75 61.6601C136.75 61.9201 136.69 62.19 136.66 62.48C136.55 63.6 136.43 64.72 136.25 65.81C136.19 66.25 136.13 66.7201 136.05 67.1601C135.87 68.4801 135.63 69.78 135.37 71.07C135.08 72.6 134.75 74.07 134.37 75.57C133.99 77.07 133.6 78.5701 133.16 79.9901C132.311 82.8745 131.31 85.7119 130.16 88.4901C130.167 88.5095 130.167 88.5306 130.16 88.55C129.34 90.6633 128.43 92.72 127.43 94.72C126.93 95.72 126.43 96.72 125.87 97.72C125.52 98.4 125.16 99.05 124.75 99.72C124.34 100.39 123.96 101.14 123.51 101.84C123.448 102.009 123.36 102.167 123.25 102.31C122.66 103.31 122.07 104.25 121.43 105.2L121.25 105.46C120.57 106.52 119.84 107.55 119.1 108.58C118.36 109.61 117.54 110.67 116.75 111.7L104.75 123.7C104.75 123.7 103.75 124.93 102.22 127.26C101.78 127.93 101.28 128.73 100.72 129.64C100.63 129.79 100.51 129.96 100.42 130.14C99.98 130.91 99.51 131.7 99.01 132.58C99.01 132.58 99.01 132.58 99.01 132.64C98.9515 132.709 98.9103 132.792 98.8899 132.88C96.9627 136.371 95.2463 139.974 93.75 143.67C93.45 144.38 93.1599 145.08 92.8899 145.82C92.6199 146.56 92.33 147.32 92.07 148.09C90.5399 152.332 89.3101 156.676 88.3899 161.09C88.1899 161.88 88.0399 162.68 87.8899 163.5C87.5699 165.06 87.3299 166.65 87.0999 168.29C86.8899 169.77 86.7199 171.29 86.5999 172.8C86.5198 173.354 86.4697 173.911 86.4499 174.47C86.3599 175.38 86.2999 176.3 86.2699 177.24C85.7986 187.416 86.8914 197.605 89.51 207.45C89.8 208.57 90.13 209.71 90.51 210.86C91.33 213.66 92.31 216.48 93.42 219.33C93.75 220.16 94.07 220.95 94.42 221.75C94.77 222.55 95.13 223.45 95.51 224.3C95.89 225.15 96.28 226.01 96.69 226.86C97.1 227.71 97.5099 228.6 97.9499 229.45C100.505 234.527 103.374 239.44 106.54 244.16L106.72 244.4C106.795 244.482 106.865 244.569 106.93 244.66C108.25 246.66 109.69 248.66 111.22 250.66C113.4 253.54 115.75 256.49 118.28 259.43C118.9 260.16 119.52 260.87 120.16 261.61L113.52 254.96L62.3899 203.83L62.2699 203.74L58.8899 200.36L25.5599 167L25.4399 166.88C25.4399 166.88 25.3499 166.82 25.3199 166.8L12.9399 154.38C9.05228 150.509 5.94582 145.925 3.78994 140.88C0.342902 132.909 -0.627804 124.086 1.0039 115.557C2.63561 107.027 6.79433 99.1856 12.9399 93.05L87.2799 18.71C94.6774 11.2865 104.531 6.82009 114.99 6.15008C118.649 5.89166 122.327 6.11006 125.93 6.79999C126.67 8.17999 127.4 9.59009 128.08 11.0301C128.67 12.2101 129.2 13.4101 129.73 14.6201C129.82 14.8737 129.927 15.1209 130.05 15.36C130.059 15.3859 130.059 15.4141 130.05 15.44C130.039 15.4793 130.039 15.5207 130.05 15.56C130.64 16.97 131.2 18.42 131.72 19.86C132.24 21.3 132.72 22.77 133.2 24.24V24.33C133.58 25.56 133.93 26.8001 134.25 28.0301C134.4 28.5601 134.55 29.0901 134.67 29.6201C134.93 30.6201 135.17 31.68 135.37 32.74C135.87 35.21 136.28 37.68 136.61 40.21C136.73 41.21 136.84 42.21 136.93 43.21C137.02 44.21 137.11 45.21 137.17 46.21C137.23 47.21 137.28 48.2101 137.31 49.2701C137.34 50.3301 137.19 51.3601 137.19 52.3901Z" fill="url(#paint7_linear)"/>
<g style="mix-blend-mode:multiply" opacity="0.25">
<path d="M150.67 231.04L120.01 261.7L82.5399 299.17C78.5132 303.199 73.7319 306.396 68.4695 308.576C63.207 310.757 57.5664 311.88 51.8699 311.88C46.1734 311.88 40.5328 310.757 35.2703 308.576C30.0078 306.396 25.2266 303.199 21.1999 299.17C19.2151 297.185 17.4329 295.008 15.8799 292.67C16.1099 293 16.5799 293.55 17.2299 294.35C18.7891 296.16 20.4804 297.851 22.2899 299.41C25.0515 301.815 28.1056 303.861 31.3799 305.5C35.5984 307.549 40.114 308.919 44.7599 309.56C50.1921 310.298 55.7155 309.986 61.0299 308.64C66.8882 307.145 72.349 304.387 77.0299 300.56C78.2517 299.57 79.4138 298.508 80.5099 297.38C81.6799 296.17 82.8599 294.97 84.0699 293.76L91.2999 286.35C96.2099 281.35 101.22 276.35 106.19 271.35C110.13 267.47 114.07 263.56 117.95 259.71L118.1 259.56C119.16 258.56 120.19 257.5 121.22 256.47C126.13 251.56 131.1 246.82 135.87 242.17C140.64 237.52 145.22 233.17 149.61 228.96C151.608 226.952 153.419 224.766 155.02 222.43C156.512 220.228 157.781 217.883 158.81 215.43C160.639 211.114 161.783 206.539 162.2 201.87C162.481 198.228 162.323 194.565 161.73 190.96C161.303 188.615 160.711 186.302 159.96 184.04C159.61 183.04 159.37 182.37 159.23 181.98C163.02 190.045 164.232 199.083 162.7 207.862C161.168 216.641 156.967 224.735 150.67 231.04V231.04Z" fill="black"/>
</g>
<g style="mix-blend-mode:screen" opacity="0.5">
<path d="M114.75 6.15004C114.42 6.15004 113.66 6.30002 112.45 6.50002C110.155 6.93226 107.896 7.53384 105.69 8.29994C102.288 9.48027 99.0468 11.0792 96.0399 13.06C94.2271 14.2646 92.5057 15.6015 90.8899 17.06C89.1799 18.59 87.5699 20.39 85.7699 22.33C78.6499 29.98 70.2699 38.8 61.2099 48.16C56.6499 52.8 51.9399 57.6301 47.2099 62.5401C42.4799 67.4501 37.5 72.34 32.62 77.28C27.74 82.22 22.7299 87.07 17.8799 91.87C16.6999 93.05 15.3499 94.34 14.3499 95.4L12.58 97.25L11.11 99.02C9.19315 101.445 7.55611 104.078 6.22995 106.87C3.69965 112.24 2.33635 118.085 2.22995 124.02C2.08063 134.071 5.44009 143.859 11.7299 151.7C14.3799 154.85 17.02 157.59 19.02 159.85C22.53 163.74 24.6999 166.24 25.1999 166.85C25.1999 166.85 25.11 166.79 25.08 166.77L12.6999 154.35C8.81229 150.479 5.70583 145.895 3.54995 140.85C0.102911 132.879 -0.867794 124.056 0.763913 115.527C2.39562 106.997 6.55434 99.1556 12.6999 93.02L87.0399 18.6799C94.442 11.2674 104.295 6.81197 114.75 6.15004V6.15004Z" fill="white"/>
</g>
<g style="mix-blend-mode:multiply" opacity="0.25">
<path d="M143.31 14.3901H143.25C143.269 14.3832 143.291 14.3832 143.31 14.3901Z" fill="black"/>
</g>
<g style="mix-blend-mode:multiply" opacity="0.25">
<path d="M148.34 80.0401L123.66 104.73C124.22 104.02 128.22 98.73 134.52 91.49C137.9 87.58 141.93 83.1 146.31 78.4C147.31 77.22 148.31 75.98 149.4 74.78C150.2 73.48 151.14 72.34 151.93 70.98C152.771 69.6323 153.519 68.2291 154.17 66.78L155.17 64.6L155.93 62.34C156.988 59.3325 157.69 56.2112 158.02 53.0401C158.33 49.9478 158.33 46.8323 158.02 43.74C157.93 43.01 157.84 42.24 157.79 41.51C157.74 40.78 157.49 40.07 157.34 39.33C157.089 37.9224 156.735 36.5353 156.28 35.1799C155.909 33.8664 155.448 32.58 154.9 31.33C154.448 30.1292 153.917 28.9599 153.31 27.83C152.808 26.7442 152.22 25.7008 151.55 24.71C151.031 23.7524 150.44 22.8364 149.78 21.97C149.2 21.15 148.61 20.3899 148.08 19.6799C147.58 19.0391 147.038 18.4312 146.46 17.86C144.67 15.92 143.55 14.68 143.31 14.41C145.09 15.7054 146.763 17.1434 148.31 18.71C152.342 22.7332 155.542 27.5118 157.726 32.7725C159.91 38.0332 161.035 43.6728 161.038 49.3688C161.041 55.0648 159.921 60.7055 157.742 65.9683C155.563 71.2311 152.368 76.0129 148.34 80.0401V80.0401Z" fill="black"/>
</g>
<g style="mix-blend-mode:screen" opacity="0.5">
<path d="M113.34 254.98L62.0898 203.76C62.5298 204.06 66.1798 206.59 71.0898 210.76C73.7398 212.91 76.7399 215.53 79.8599 218.41C81.4199 219.88 83.0698 221.32 84.6498 222.91C86.2298 224.5 87.8599 226.06 89.4799 227.62C92.6599 230.89 95.8299 234.09 98.6899 237.27C101.55 240.45 104.19 243.39 106.36 246.01C110.48 250.98 113.04 254.58 113.34 254.98Z" fill="white"/>
</g>
<g style="mix-blend-mode:screen" opacity="0.5">
<path d="M98.9199 132.7L98.9799 132.64C98.9799 132.64 98.9199 132.67 98.9199 132.7Z" fill="white"/>
</g>
<g style="mix-blend-mode:screen" opacity="0.5">
<path d="M106.57 244.46C106.16 243.93 105.13 242.6 103.66 240.66L100.16 235.93C98.9532 233.983 97.6365 231.787 96.2098 229.34C94.6626 226.727 93.2897 224.014 92.0998 221.22C90.64 218.145 89.4002 214.97 88.3898 211.72C87.7453 210.033 87.2239 208.302 86.8298 206.54C86.3598 204.77 85.9199 202.98 85.5099 201.15C85.0999 199.32 84.9198 197.45 84.5998 195.57C84.2669 193.701 84.0399 191.815 83.9199 189.92C83.7999 188.03 83.7099 186.12 83.6199 184.24C83.5299 182.36 83.6799 180.47 83.7399 178.59C83.7463 176.739 83.8833 174.891 84.1498 173.06C84.4198 171.24 84.5098 169.44 84.8898 167.71C85.2698 165.98 85.5398 164.24 85.8898 162.56C86.2398 160.88 86.7699 159.29 87.1799 157.73C88.0123 154.795 89.014 151.91 90.1799 149.09C91.1084 146.701 92.1666 144.364 93.3498 142.09C94.3498 140.09 95.4098 138.36 96.2098 136.92C97.0098 135.48 97.7898 134.48 98.2698 133.74C98.4998 133.39 98.6799 133.12 98.8199 132.95C96.8927 136.441 95.1762 140.044 93.6799 143.74C93.3799 144.45 93.0899 145.15 92.8199 145.89C92.5499 146.63 92.2599 147.39 91.9999 148.16C90.4698 152.402 89.2401 156.746 88.3199 161.16C88.1199 161.95 87.9699 162.75 87.8199 163.57C87.4999 165.13 87.2598 166.72 87.0298 168.36C86.8198 169.84 86.6498 171.36 86.5298 172.87C86.4497 173.424 86.3996 173.981 86.3799 174.54C86.2899 175.45 86.2298 176.37 86.1998 177.31C85.7285 187.486 86.8212 197.675 89.4399 207.52C89.7299 208.64 90.0599 209.78 90.4399 210.93C91.2599 213.73 92.2398 216.55 93.3498 219.4C93.6798 220.23 93.9998 221.02 94.3498 221.82C94.6998 222.62 95.0599 223.52 95.4399 224.37C95.8199 225.22 96.2099 226.08 96.6199 226.93C97.0299 227.78 97.4399 228.67 97.8799 229.52C100.448 234.684 103.351 239.675 106.57 244.46V244.46Z" fill="white"/>
</g>
<g style="mix-blend-mode:screen" opacity="0.5">
<path d="M137.19 52.39C137.19 54.25 137.13 56.07 137.02 57.89C136.96 59.16 136.87 60.42 136.75 61.66C136.75 61.92 136.69 62.19 136.66 62.48C136.55 63.6 136.43 64.72 136.25 65.81C136.19 66.25 136.13 66.72 136.05 67.16C135.87 68.48 135.63 69.78 135.37 71.07C135.08 72.6 134.75 74.07 134.37 75.57C133.99 77.07 133.6 78.57 133.16 79.99C132.311 82.8745 131.31 85.7118 130.16 88.49C130.25 88.1 130.46 87.0499 130.81 85.4299C131.28 83.4299 131.87 80.54 132.49 77.13C133.11 73.72 133.69 69.6899 134.07 65.4199C134.34 63.2799 134.4 61.04 134.55 58.81C134.7 56.58 134.72 54.28 134.69 51.98C134.66 49.68 134.63 47.39 134.52 45.16C134.41 42.93 134.22 40.6801 133.99 38.5401C133.52 34.2401 132.9 30.27 132.28 26.83C131.66 23.39 130.99 20.56 130.54 18.53C130.19 17.03 129.96 16 129.87 15.53C130.46 16.94 131.02 18.39 131.54 19.83C132.06 21.27 132.54 22.74 133.02 24.21V24.2999C133.4 25.5299 133.75 26.77 134.07 28C134.22 28.53 134.37 29.06 134.49 29.59C134.75 30.59 134.99 31.65 135.19 32.71C135.69 35.18 136.1 37.6499 136.43 40.1799C136.55 41.1799 136.66 42.1799 136.75 43.1799C136.84 44.1799 136.93 45.1799 136.99 46.1799C137.05 47.1799 137.1 48.18 137.13 49.24C137.16 50.3 137.19 51.36 137.19 52.39Z" fill="white"/>
</g>
<g style="mix-blend-mode:screen" opacity="0.35">
<path d="M62.8899 192.12L31.5899 160.79L29.1399 158.09H28.8499L18.9399 148.15C12.4651 141.666 8.82837 132.878 8.82837 123.715C8.82837 114.552 12.4651 105.764 18.9399 99.28L93.2699 24.98C99.1451 19.0851 106.965 15.5305 115.27 14.98C116.12 14.98 116.88 14.9 117.65 14.9C118.42 14.9 119.15 14.9 119.89 14.98C31.2599 84.28 46.7099 156.41 62.8899 192.12Z" fill="white"/>
</g>
</g>
<defs>
<linearGradient id="paint0_linear" x1="223.3" y1="155.94" x2="293.78" y2="155.94" gradientUnits="userSpaceOnUse">
<stop stop-color="#FF2F5E"/>
<stop offset="0.25" stop-color="#FC2D5D"/>
<stop offset="0.46" stop-color="#F12759"/>
<stop offset="0.66" stop-color="#E01D52"/>
<stop offset="0.85" stop-color="#C70F48"/>
<stop offset="1" stop-color="#AD003E"/>
</linearGradient>
<linearGradient id="paint1_linear" x1="450.32" y1="155.94" x2="299.78" y2="155.94" gradientUnits="userSpaceOnUse">
<stop stop-color="#FF2F5E"/>
<stop offset="0.3" stop-color="#EB2352"/>
<stop offset="0.91" stop-color="#B70532"/>
<stop offset="1" stop-color="#AF002D"/>
</linearGradient>
<linearGradient id="paint2_linear" x1="258.37" y1="311.88" x2="258.37" y2="214.72" gradientUnits="userSpaceOnUse">
<stop stop-color="#FF005E"/>
<stop offset="0.34" stop-color="#F70057"/>
<stop offset="0.86" stop-color="#E30044"/>
<stop offset="1" stop-color="#DC003E"/>
</linearGradient>
<linearGradient id="paint3_linear" x1="258.36" y1="97.18" x2="258.36" y2="0.00999451" gradientUnits="userSpaceOnUse">
<stop stop-color="#DC003E"/>
<stop offset="0.34" stop-color="#E40045"/>
<stop offset="0.86" stop-color="#F80058"/>
<stop offset="1" stop-color="#FF005E"/>
</linearGradient>
<linearGradient id="paint4_linear" x1="125.21" y1="59.2499" x2="165.21" y2="59.2499" gradientUnits="userSpaceOnUse">
<stop stop-color="#E7003E"/>
<stop offset="0.6" stop-color="#C1003E"/>
<stop offset="1" stop-color="#AD003E"/>
</linearGradient>
<linearGradient id="paint5_linear" x1="98.99" y1="221.4" x2="21.52" y2="298.87" gradientUnits="userSpaceOnUse">
<stop stop-color="#AD003E"/>
<stop offset="1" stop-color="#AD003E"/>
</linearGradient>
<linearGradient id="paint6_linear" x1="82.06" y1="192.71" x2="158.55" y2="192.71" gradientUnits="userSpaceOnUse">
<stop stop-color="#AD003E"/>
<stop offset="0.11" stop-color="#B70042"/>
<stop offset="0.71" stop-color="#EB0056"/>
<stop offset="1" stop-color="#FF005E"/>
</linearGradient>
<linearGradient id="paint7_linear" x1="64558.7" y1="344735" x2="85540.3" y2="344735" gradientUnits="userSpaceOnUse">
<stop stop-color="#FF2F5E"/>
<stop offset="0.25" stop-color="#FC2D5D"/>
<stop offset="0.46" stop-color="#F12759"/>
<stop offset="0.66" stop-color="#E01D52"/>
<stop offset="0.85" stop-color="#C70F48"/>
<stop offset="1" stop-color="#AD003E"/>
</linearGradient>
<clipPath id="clip0">
<rect width="1933.39" height="311.88" fill="white"/>
</clipPath>
</defs>
</svg>
