<svg width="1619" height="312" viewBox="0 0 1619 312" fill="none" xmlns="http://www.w3.org/2000/svg">
<g clip-path="url(#clip0)">
<path d="M519.071 176.71C552.19 178.523 574.612 179.43 586.337 179.43C589.117 179.43 591.293 178.644 592.864 177.073C594.556 175.38 595.403 173.144 595.403 170.364V154.046H553.701C541.01 154.046 531.763 151.206 525.961 145.525C520.28 139.723 517.439 130.476 517.439 117.784V112.345C517.439 99.6533 520.28 90.4669 525.961 84.7859C531.763 78.984 541.01 76.083 553.701 76.083H617.341V101.466H560.954C553.701 101.466 550.075 105.093 550.075 112.345V115.971C550.075 123.224 553.701 126.85 560.954 126.85H593.59C605.435 126.85 614.138 129.63 619.698 135.19C625.258 140.75 628.038 149.453 628.038 161.299V170.364C628.038 182.21 625.258 190.913 619.698 196.473C614.138 202.033 605.435 204.813 593.59 204.813C587.425 204.813 580.898 204.692 574.008 204.45L557.327 203.725C544.998 203.121 532.246 202.275 519.071 201.187V176.71ZM674.258 108.719C685.983 106.301 696.257 105.093 705.081 105.093H713.24C721.459 105.093 728.047 107.571 733.003 112.526C737.959 117.482 740.436 124.07 740.436 132.289V203H708.707V135.915C708.707 134.102 708.103 132.591 706.894 131.383C705.685 130.174 704.174 129.569 702.361 129.569H696.015C691.422 129.569 687.192 129.811 683.324 130.295C679.577 130.778 676.555 131.141 674.258 131.383V203H642.529V76.083H674.258V108.719ZM796.621 110.532V203H764.892V135.009H751.294V110.532H796.621ZM764.892 74.2699H796.621V99.6533H764.892V74.2699ZM868.295 131.383C861.889 131.383 854.637 132.591 846.538 135.009V203H814.809V106.906H842.912L844.725 115.971C850.406 112.224 856.208 109.504 862.131 107.812C868.175 105.999 873.251 105.093 877.361 105.093H885.52C893.739 105.093 900.327 107.571 905.283 112.526C910.238 117.482 912.716 124.07 912.716 132.289V203H880.987V137.728C880.987 135.915 880.383 134.404 879.174 133.196C877.965 131.987 876.454 131.383 874.641 131.383H868.295ZM968.901 110.532V203H937.172V135.009H923.574V110.532H968.901ZM937.172 74.2699H968.901V99.6533H937.172V74.2699ZM1040.58 131.383C1034.17 131.383 1026.92 132.591 1018.82 135.009V203H987.089V106.906H1015.19L1017 115.971C1022.69 112.224 1028.49 109.504 1034.41 107.812C1040.45 105.999 1045.53 105.093 1049.64 105.093H1057.8C1066.02 105.093 1072.61 107.571 1077.56 112.526C1082.52 117.482 1085 124.07 1085 132.289V203H1053.27V137.728C1053.27 135.915 1052.66 134.404 1051.45 133.196C1050.25 131.987 1048.73 131.383 1046.92 131.383H1040.58ZM1163.84 195.748C1152.12 198.165 1141.85 199.374 1133.02 199.374H1126.68C1118.46 199.374 1111.87 196.896 1106.91 191.94C1101.96 186.984 1099.48 180.397 1099.48 172.177V135.915C1099.48 126.85 1102.02 119.779 1107.09 114.702C1112.29 109.504 1119.42 106.906 1128.49 106.906H1195.57V208.439C1195.57 216.659 1193.1 223.246 1188.14 228.202C1183.18 233.158 1176.6 235.636 1168.38 235.636C1149.4 235.636 1128.25 234.427 1104.92 232.01V208.439C1128.01 210.252 1145.53 211.159 1157.5 211.159C1159.31 211.159 1160.82 210.555 1162.03 209.346C1163.24 208.137 1163.84 206.626 1163.84 204.813V195.748ZM1142.09 174.897C1149.7 174.897 1156.96 174.293 1163.84 173.084V131.383H1138.46C1133.63 131.383 1131.21 133.8 1131.21 138.635V168.551C1131.21 170.364 1131.81 171.875 1133.02 173.084C1134.23 174.293 1135.74 174.897 1137.55 174.897H1142.09ZM1340.61 76.083C1354.27 76.083 1364.6 79.6488 1371.61 86.7803C1378.74 93.7909 1382.31 104.126 1382.31 117.784V161.299C1382.31 174.957 1378.74 185.352 1371.61 192.484C1364.6 199.495 1354.27 203 1340.61 203H1269.9V76.083H1340.61ZM1349.67 117.784C1349.67 106.906 1344.23 101.466 1333.36 101.466H1302.53V177.617H1333.36C1344.23 177.617 1349.67 172.177 1349.67 161.299V117.784ZM1443 178.523C1449.4 178.523 1456.66 177.314 1464.76 174.897V106.906H1496.48V203H1468.38L1466.57 193.934C1460.89 197.682 1455.03 200.462 1448.98 202.275C1443.06 203.967 1438.04 204.813 1433.93 204.813H1425.77C1417.55 204.813 1410.97 202.335 1406.01 197.379C1401.06 192.424 1398.58 185.836 1398.58 177.617V106.906H1430.31V172.177C1430.31 173.99 1430.91 175.501 1432.12 176.71C1433.33 177.919 1434.84 178.523 1436.65 178.523H1443ZM1578.92 135.915C1578.92 134.102 1578.31 132.591 1577.1 131.383C1575.9 130.174 1574.38 129.569 1572.57 129.569H1568.04C1562.96 129.569 1558.55 129.811 1554.8 130.295C1551.18 130.778 1548.34 131.141 1546.28 131.383V178.523H1571.66C1576.5 178.523 1578.92 176.106 1578.92 171.271V135.915ZM1546.28 108.719C1558.01 106.301 1568.28 105.093 1577.1 105.093H1583.45C1591.67 105.093 1598.26 107.571 1603.21 112.526C1608.17 117.482 1610.65 124.07 1610.65 132.289V173.99C1610.65 183.056 1608.05 190.187 1602.85 195.385C1597.77 200.462 1590.7 203 1581.64 203H1514.55V76.083H1546.28V108.719Z" fill="white"/>
<path d="M561.193 263.492H572.394C575.661 263.492 578.025 264.239 579.488 265.732C580.981 267.194 581.728 269.559 581.728 272.826V274.226C581.728 277.493 580.981 279.873 579.488 281.367C578.025 282.829 575.661 283.56 572.394 283.56H552.792V250.891H578.694V257.425H561.193V263.492ZM573.327 272.826C573.327 270.959 572.394 270.026 570.527 270.026H561.193V277.026H570.527C572.394 277.026 573.327 276.093 573.327 274.226V272.826ZM585.46 283.56V258.825H593.627V266.525H602.727C604.843 266.525 606.539 267.163 607.814 268.439C609.09 269.715 609.728 271.41 609.728 273.526V276.559C609.728 278.675 609.09 280.371 607.814 281.647C606.539 282.922 604.843 283.56 602.727 283.56H585.46ZM599.927 277.726C600.394 277.726 600.783 277.571 601.094 277.26C601.405 276.948 601.561 276.559 601.561 276.093V274.039C601.561 273.573 601.405 273.184 601.094 272.873C600.783 272.561 600.394 272.406 599.927 272.406H593.627V277.726H599.927ZM620.929 283.56H612.761V258.825H620.929V283.56ZM647.547 283.093C641.729 283.716 636.595 284.027 632.146 284.027C630.03 284.027 628.335 283.389 627.059 282.113C625.783 280.838 625.145 279.142 625.145 277.026V266.292C625.145 263.959 625.799 262.138 627.106 260.832C628.443 259.494 630.279 258.825 632.613 258.825H647.547V265.125H635.179C633.935 265.125 633.313 265.748 633.313 266.992V276.093C633.313 276.559 633.468 276.948 633.779 277.26C634.09 277.571 634.479 277.726 634.946 277.726C637.746 277.726 641.947 277.493 647.547 277.026V283.093ZM665.272 265.125V283.56H657.105V265.125H649.405V258.825H672.973V265.125H665.272ZM689.559 265.125C687.91 265.125 686.043 265.436 683.959 266.059V277.26H690.959C692.204 277.26 692.826 276.637 692.826 275.393V266.759C692.826 266.292 692.67 265.903 692.359 265.592C692.048 265.281 691.659 265.125 691.193 265.125H689.559ZM683.959 283.56V291.494H675.791V258.825H683.025L683.492 261.158C684.954 260.194 686.448 259.494 687.972 259.058C689.528 258.592 690.835 258.358 691.893 258.358H693.993C696.108 258.358 697.804 258.996 699.08 260.272C700.355 261.547 700.993 263.243 700.993 265.359V276.093C700.993 278.426 700.324 280.262 698.986 281.6C697.68 282.907 695.86 283.56 693.526 283.56H683.959ZM705.188 283.56V258.825H713.355V266.525H722.456C724.572 266.525 726.267 267.163 727.543 268.439C728.819 269.715 729.457 271.41 729.457 273.526V276.559C729.457 278.675 728.819 280.371 727.543 281.647C726.267 282.922 724.572 283.56 722.456 283.56H705.188ZM719.656 277.726C720.122 277.726 720.511 277.571 720.823 277.26C721.134 276.948 721.289 276.559 721.289 276.093V274.039C721.289 273.573 721.134 273.184 720.823 272.873C720.511 272.561 720.122 272.406 719.656 272.406H713.355V277.726H719.656ZM740.657 283.56H732.49V258.825H740.657V283.56ZM755.141 256.491C751.097 256.491 749.074 254.469 749.074 250.424V249.024H755.141V250.191C755.141 250.658 755.297 251.047 755.608 251.358C755.919 251.669 756.308 251.824 756.775 251.824H758.175C758.642 251.824 759.031 251.669 759.342 251.358C759.653 251.047 759.808 250.658 759.808 250.191V249.024H765.876V250.424C765.876 254.469 763.853 256.491 759.808 256.491H755.141ZM761.442 258.825H770.076V283.56H761.909V270.026L753.975 283.56H745.341V258.825H753.508V272.359L761.442 258.825ZM813.464 258.825V283.56H805.297V265.125H796.896V283.56H788.729V258.825H813.464ZM827.693 264.192C826.449 264.192 825.826 264.814 825.826 266.059V268.626H833.76V266.059C833.76 264.814 833.138 264.192 831.894 264.192H827.693ZM840.994 283.093C834.989 283.716 829.544 284.027 824.66 284.027C822.544 284.027 820.848 283.389 819.573 282.113C818.297 280.838 817.659 279.142 817.659 277.026V265.825C817.659 263.492 818.313 261.672 819.619 260.365C820.957 259.027 822.793 258.358 825.126 258.358H834.46C836.794 258.358 838.614 259.027 839.921 260.365C841.259 261.672 841.928 263.492 841.928 265.825V274.459H825.826V276.326C825.826 276.793 825.982 277.182 826.293 277.493C826.604 277.804 826.993 277.96 827.46 277.96C830.54 277.96 835.052 277.726 840.994 277.26V283.093ZM859.877 265.125C858.228 265.125 856.361 265.436 854.277 266.059V277.26H861.277C862.522 277.26 863.144 276.637 863.144 275.393V266.759C863.144 266.292 862.989 265.903 862.677 265.592C862.366 265.281 861.977 265.125 861.511 265.125H859.877ZM854.277 283.56V291.494H846.11V258.825H853.343L853.81 261.158C855.273 260.194 856.766 259.494 858.29 259.058C859.846 258.592 861.153 258.358 862.211 258.358H864.311C866.427 258.358 868.122 258.996 869.398 260.272C870.674 261.547 871.311 263.243 871.311 265.359V276.093C871.311 278.426 870.642 280.262 869.305 281.6C867.998 282.907 866.178 283.56 863.844 283.56H854.277ZM885.074 264.192C883.829 264.192 883.207 264.814 883.207 266.059V268.626H891.141V266.059C891.141 264.814 890.518 264.192 889.274 264.192H885.074ZM898.375 283.093C892.37 283.716 886.925 284.027 882.04 284.027C879.924 284.027 878.229 283.389 876.953 282.113C875.677 280.838 875.04 279.142 875.04 277.026V265.825C875.04 263.492 875.693 261.672 877 260.365C878.338 259.027 880.173 258.358 882.507 258.358H891.841C894.174 258.358 895.994 259.027 897.301 260.365C898.639 261.672 899.308 263.492 899.308 265.825V274.459H883.207V276.326C883.207 276.793 883.362 277.182 883.674 277.493C883.985 277.804 884.374 277.96 884.84 277.96C887.92 277.96 892.432 277.726 898.375 277.26V283.093ZM921.225 283.56H903.49V258.825H919.825C921.909 258.825 923.589 259.447 924.865 260.692C926.172 261.905 926.825 263.274 926.825 264.799C926.825 266.323 926.498 267.568 925.845 268.532C925.192 269.497 924.274 270.15 923.091 270.492C924.492 270.741 925.689 271.426 926.685 272.546C927.712 273.666 928.225 275.159 928.225 277.026C928.225 278.893 927.572 280.449 926.265 281.693C924.989 282.938 923.309 283.56 921.225 283.56ZM920.058 275.626C920.058 275.159 919.902 274.77 919.591 274.459C919.28 274.148 918.891 273.993 918.424 273.993H911.657V277.96H918.424C918.891 277.96 919.28 277.804 919.591 277.493C919.902 277.182 920.058 276.793 920.058 276.326V275.626ZM918.658 266.059C918.658 265.592 918.502 265.203 918.191 264.892C917.88 264.581 917.491 264.425 917.024 264.425H911.657V268.626H917.024C917.491 268.626 917.88 268.47 918.191 268.159C918.502 267.848 918.658 267.459 918.658 266.992V266.059ZM956.676 276.559C956.676 278.893 956.007 280.729 954.669 282.067C953.362 283.373 951.542 284.027 949.208 284.027H938.474C936.141 284.027 934.305 283.373 932.967 282.067C931.66 280.729 931.007 278.893 931.007 276.559V265.825C931.007 263.492 931.66 261.672 932.967 260.365C934.305 259.027 936.141 258.358 938.474 258.358H949.208C951.542 258.358 953.362 259.027 954.669 260.365C956.007 261.672 956.676 263.492 956.676 265.825V276.559ZM948.508 266.525C948.508 265.281 947.886 264.659 946.642 264.659H941.041C939.797 264.659 939.174 265.281 939.174 266.525V275.859C939.174 277.104 939.797 277.726 941.041 277.726H946.642C947.886 277.726 948.508 277.104 948.508 275.859V266.525ZM971.838 271.892C971.682 274.07 971.06 275.859 969.971 277.26H978.138V265.125H972.305L971.838 271.892ZM986.306 258.825V277.26H989.806V289.16H982.059L981.592 283.56H967.218L966.751 289.16H959.004V277.26H962.037C963.282 275.797 963.982 274.164 964.137 272.359L965.071 258.825H986.306ZM1006.15 270.492V263.959H1025.29V270.492H1006.15ZM1054.67 274.226H1051.17V283.56H1043V258.825H1051.17V267.926H1054.9L1057.47 262.792C1058.4 260.801 1059.86 259.447 1061.85 258.732C1062.57 258.483 1063.25 258.358 1063.91 258.358C1064.96 258.358 1065.93 258.436 1066.8 258.592L1067.97 258.825V265.125H1066.33C1065.28 265.125 1064.5 265.592 1064 266.525L1061.67 271.192L1068.67 283.56H1059.8L1054.67 274.226ZM1080.78 277.493C1082.43 277.493 1084.3 277.182 1086.38 276.559V273.759H1079.62C1079.15 273.759 1078.76 273.915 1078.45 274.226C1078.14 274.537 1077.98 274.926 1077.98 275.393V275.859C1077.98 276.326 1078.14 276.715 1078.45 277.026C1078.76 277.337 1079.15 277.493 1079.62 277.493H1080.78ZM1072.15 259.292C1077.84 258.669 1082.98 258.358 1087.55 258.358C1089.67 258.358 1091.36 258.996 1092.64 260.272C1093.91 261.547 1094.55 263.243 1094.55 265.359V283.56H1087.32L1086.85 281.226C1085.39 282.191 1083.88 282.907 1082.32 283.373C1080.8 283.809 1079.51 284.027 1078.45 284.027H1076.82C1074.7 284.027 1073 283.389 1071.73 282.113C1070.45 280.838 1069.82 279.142 1069.82 277.026V274.926C1069.82 272.81 1070.45 271.115 1071.73 269.839C1073 268.563 1074.7 267.926 1076.82 267.926H1086.38V266.059C1086.38 265.592 1086.23 265.203 1085.92 264.892C1085.61 264.581 1085.22 264.425 1084.75 264.425C1082.73 264.425 1080.49 264.519 1078.03 264.705C1075.6 264.892 1073.64 265.032 1072.15 265.125V259.292ZM1108.07 270.259C1110.72 270.259 1112.89 270.181 1114.61 270.026V258.825H1122.77V283.56H1114.61V276.093C1111.28 276.404 1108.17 276.559 1105.27 276.559C1103.16 276.559 1101.46 275.922 1100.19 274.646C1098.91 273.37 1098.27 271.675 1098.27 269.559V258.825H1106.44V268.626C1106.44 269.092 1106.59 269.481 1106.91 269.792C1107.22 270.103 1107.61 270.259 1108.07 270.259ZM1137.02 264.192C1135.77 264.192 1135.15 264.814 1135.15 266.059V268.626H1143.09V266.059C1143.09 264.814 1142.46 264.192 1141.22 264.192H1137.02ZM1150.32 283.093C1144.31 283.716 1138.87 284.027 1133.99 284.027C1131.87 284.027 1130.17 283.389 1128.9 282.113C1127.62 280.838 1126.98 279.142 1126.98 277.026V265.825C1126.98 263.492 1127.64 261.672 1128.94 260.365C1130.28 259.027 1132.12 258.358 1134.45 258.358H1143.79C1146.12 258.358 1147.94 259.027 1149.25 260.365C1150.58 261.672 1151.25 263.492 1151.25 265.825V274.459H1135.15V276.326C1135.15 276.793 1135.31 277.182 1135.62 277.493C1135.93 277.804 1136.32 277.96 1136.79 277.96C1139.87 277.96 1144.38 277.726 1150.32 277.26V283.093ZM1177.37 283.093C1171.55 283.716 1166.42 284.027 1161.97 284.027C1159.85 284.027 1158.16 283.389 1156.88 282.113C1155.61 280.838 1154.97 279.142 1154.97 277.026V266.292C1154.97 263.959 1155.62 262.138 1156.93 260.832C1158.27 259.494 1160.1 258.825 1162.44 258.825H1177.37V265.125H1165C1163.76 265.125 1163.14 265.748 1163.14 266.992V276.093C1163.14 276.559 1163.29 276.948 1163.6 277.26C1163.91 277.571 1164.3 277.726 1164.77 277.726C1167.57 277.726 1171.77 277.493 1177.37 277.026V283.093ZM1195.1 265.125V283.56H1186.93V265.125H1179.23V258.825H1202.8V265.125H1195.1ZM1223.35 283.56H1205.61V258.825H1221.95C1224.03 258.825 1225.71 259.447 1226.99 260.692C1228.3 261.905 1228.95 263.274 1228.95 264.799C1228.95 266.323 1228.62 267.568 1227.97 268.532C1227.32 269.497 1226.4 270.15 1225.22 270.492C1226.62 270.741 1227.81 271.426 1228.81 272.546C1229.84 273.666 1230.35 275.159 1230.35 277.026C1230.35 278.893 1229.7 280.449 1228.39 281.693C1227.11 282.938 1225.43 283.56 1223.35 283.56ZM1222.18 275.626C1222.18 275.159 1222.03 274.77 1221.72 274.459C1221.4 274.148 1221.02 273.993 1220.55 273.993H1213.78V277.96H1220.55C1221.02 277.96 1221.4 277.804 1221.72 277.493C1222.03 277.182 1222.18 276.793 1222.18 276.326V275.626ZM1220.78 266.059C1220.78 265.592 1220.63 265.203 1220.32 264.892C1220 264.581 1219.62 264.425 1219.15 264.425H1213.78V268.626H1219.15C1219.62 268.626 1220 268.47 1220.32 268.159C1220.63 267.848 1220.78 267.459 1220.78 266.992V266.059ZM1243.17 264.192C1241.92 264.192 1241.3 264.814 1241.3 266.059V268.626H1249.23V266.059C1249.23 264.814 1248.61 264.192 1247.37 264.192H1243.17ZM1256.47 283.093C1250.46 283.716 1245.02 284.027 1240.13 284.027C1238.02 284.027 1236.32 283.389 1235.04 282.113C1233.77 280.838 1233.13 279.142 1233.13 277.026V265.825C1233.13 263.492 1233.78 261.672 1235.09 260.365C1236.43 259.027 1238.27 258.358 1240.6 258.358H1249.93C1252.27 258.358 1254.09 259.027 1255.39 260.365C1256.73 261.672 1257.4 263.492 1257.4 265.825V274.459H1241.3V276.326C1241.3 276.793 1241.45 277.182 1241.77 277.493C1242.08 277.804 1242.47 277.96 1242.93 277.96C1246.01 277.96 1250.52 277.726 1256.47 277.26V283.093ZM1278.15 267.926V258.825H1286.32V283.56H1278.15V274.226H1269.75V283.56H1261.58V258.825H1269.75V267.926H1278.15ZM1307.55 267.926V258.825H1315.71V283.56H1307.55V274.226H1299.15V283.56H1290.98V258.825H1299.15V267.926H1307.55ZM1330.18 277.493C1331.82 277.493 1333.69 277.182 1335.78 276.559V273.759H1329.01C1328.54 273.759 1328.15 273.915 1327.84 274.226C1327.53 274.537 1327.38 274.926 1327.38 275.393V275.859C1327.38 276.326 1327.53 276.715 1327.84 277.026C1328.15 277.337 1328.54 277.493 1329.01 277.493H1330.18ZM1321.54 259.292C1327.24 258.669 1332.37 258.358 1336.94 258.358C1339.06 258.358 1340.75 258.996 1342.03 260.272C1343.31 261.547 1343.94 263.243 1343.94 265.359V283.56H1336.71L1336.24 281.226C1334.78 282.191 1333.27 282.907 1331.72 283.373C1330.19 283.809 1328.9 284.027 1327.84 284.027H1326.21C1324.09 284.027 1322.4 283.389 1321.12 282.113C1319.85 280.838 1319.21 279.142 1319.21 277.026V274.926C1319.21 272.81 1319.85 271.115 1321.12 269.839C1322.4 268.563 1324.09 267.926 1326.21 267.926H1335.78V266.059C1335.78 265.592 1335.62 265.203 1335.31 264.892C1335 264.581 1334.61 264.425 1334.14 264.425C1332.12 264.425 1329.88 264.519 1327.42 264.705C1325 264.892 1323.04 265.032 1321.54 265.125V259.292ZM1372.4 258.825V283.56H1364.23V275.859H1360.27L1355.83 283.56H1347.2L1351.86 275.393C1350.56 274.926 1349.53 274.133 1348.78 273.013C1348.04 271.892 1347.66 270.508 1347.66 268.859V265.825C1347.66 263.71 1348.3 262.014 1349.58 260.738C1350.85 259.463 1352.55 258.825 1354.66 258.825H1372.4ZM1357.47 264.659C1357 264.659 1356.61 264.814 1356.3 265.125C1355.99 265.436 1355.83 265.825 1355.83 266.292V268.392C1355.83 268.859 1355.99 269.248 1356.3 269.559C1356.61 269.87 1357 270.026 1357.47 270.026H1364.23V264.659H1357.47ZM1416.27 276.559C1416.27 278.893 1415.6 280.729 1414.26 282.067C1412.95 283.373 1411.13 284.027 1408.8 284.027H1398.06C1395.73 284.027 1393.9 283.373 1392.56 282.067C1391.25 280.729 1390.6 278.893 1390.6 276.559V265.825C1390.6 263.492 1391.25 261.672 1392.56 260.365C1393.9 259.027 1395.73 258.358 1398.06 258.358H1408.8C1411.13 258.358 1412.95 259.027 1414.26 260.365C1415.6 261.672 1416.27 263.492 1416.27 265.825V276.559ZM1408.1 266.525C1408.1 265.281 1407.48 264.659 1406.23 264.659H1400.63C1399.39 264.659 1398.76 265.281 1398.76 266.525V275.859C1398.76 277.104 1399.39 277.726 1400.63 277.726H1406.23C1407.48 277.726 1408.1 277.104 1408.1 275.859V266.525ZM1419.06 277.493C1425 277.96 1429.67 278.193 1433.06 278.193C1433.53 278.193 1433.92 278.037 1434.23 277.726C1434.54 277.415 1434.69 277.026 1434.69 276.559V275.859C1434.69 275.393 1434.54 275.004 1434.23 274.693C1433.92 274.382 1433.53 274.226 1433.06 274.226H1422.79V268.392H1432.13C1432.59 268.392 1432.98 268.237 1433.29 267.926C1433.61 267.614 1433.76 267.225 1433.76 266.759V266.292C1433.76 265.825 1433.61 265.436 1433.29 265.125C1432.98 264.814 1432.59 264.659 1432.13 264.659H1419.53V258.825H1434.93C1437.01 258.825 1438.69 259.447 1439.97 260.692C1441.28 261.905 1441.93 263.274 1441.93 264.799C1441.93 267.91 1440.53 269.808 1437.73 270.492C1439.13 270.741 1440.33 271.426 1441.32 272.546C1442.35 273.666 1442.86 275.222 1442.86 277.213C1442.86 279.204 1442.22 280.838 1440.95 282.113C1439.67 283.389 1437.98 284.027 1435.86 284.027C1430.67 284.027 1425.07 283.716 1419.06 283.093V277.493ZM1463.85 283.56H1446.12V258.825H1462.45C1464.54 258.825 1466.22 259.447 1467.49 260.692C1468.8 261.905 1469.45 263.274 1469.45 264.799C1469.45 266.323 1469.13 267.568 1468.47 268.532C1467.82 269.497 1466.9 270.15 1465.72 270.492C1467.12 270.741 1468.32 271.426 1469.31 272.546C1470.34 273.666 1470.85 275.159 1470.85 277.026C1470.85 278.893 1470.2 280.449 1468.89 281.693C1467.62 282.938 1465.94 283.56 1463.85 283.56ZM1462.69 275.626C1462.69 275.159 1462.53 274.77 1462.22 274.459C1461.91 274.148 1461.52 273.993 1461.05 273.993H1454.29V277.96H1461.05C1461.52 277.96 1461.91 277.804 1462.22 277.493C1462.53 277.182 1462.69 276.793 1462.69 276.326V275.626ZM1461.29 266.059C1461.29 265.592 1461.13 265.203 1460.82 264.892C1460.51 264.581 1460.12 264.425 1459.65 264.425H1454.29V268.626H1459.65C1460.12 268.626 1460.51 268.47 1460.82 268.159C1461.13 267.848 1461.29 267.459 1461.29 266.992V266.059ZM1479.73 291.961C1478.08 291.961 1476.05 291.805 1473.66 291.494V285.427H1477.86C1479.04 285.427 1479.8 285.1 1480.15 284.447C1480.52 283.793 1480.46 282.876 1479.96 281.693L1470.39 258.825H1479.03L1484.86 274.693L1489.76 258.825H1498.39L1489.06 284.493C1488.16 286.951 1486.99 288.803 1485.56 290.047C1484.13 291.323 1482.18 291.961 1479.73 291.961ZM1509.14 270.259C1511.79 270.259 1513.97 270.181 1515.68 270.026V258.825H1523.84V283.56H1515.68V276.093C1512.35 276.404 1509.24 276.559 1506.34 276.559C1504.23 276.559 1502.53 275.922 1501.26 274.646C1499.98 273.37 1499.34 271.675 1499.34 269.559V258.825H1507.51V268.626C1507.51 269.092 1507.66 269.481 1507.98 269.792C1508.29 270.103 1508.68 270.259 1509.14 270.259ZM1540.19 274.226H1536.69V283.56H1528.52V258.825H1536.69V267.926H1540.42L1542.99 262.792C1543.92 260.801 1545.39 259.447 1547.38 258.732C1548.09 258.483 1548.78 258.358 1549.43 258.358C1550.49 258.358 1551.45 258.436 1552.32 258.592L1553.49 258.825V265.125H1551.86C1550.8 265.125 1550.02 265.592 1549.52 266.525L1547.19 271.192L1554.19 283.56H1545.32L1540.19 274.226ZM1566.31 277.493C1567.96 277.493 1569.82 277.182 1571.91 276.559V273.759H1565.14C1564.67 273.759 1564.28 273.915 1563.97 274.226C1563.66 274.537 1563.51 274.926 1563.51 275.393V275.859C1563.51 276.326 1563.66 276.715 1563.97 277.026C1564.28 277.337 1564.67 277.493 1565.14 277.493H1566.31ZM1557.67 259.292C1563.37 258.669 1568.5 258.358 1573.07 258.358C1575.19 258.358 1576.88 258.996 1578.16 260.272C1579.44 261.547 1580.07 263.243 1580.07 265.359V283.56H1572.84L1572.37 281.226C1570.91 282.191 1569.4 282.907 1567.85 283.373C1566.32 283.809 1565.03 284.027 1563.97 284.027H1562.34C1560.22 284.027 1558.53 283.389 1557.25 282.113C1555.98 280.838 1555.34 279.142 1555.34 277.026V274.926C1555.34 272.81 1555.98 271.115 1557.25 269.839C1558.53 268.563 1560.22 267.926 1562.34 267.926H1571.91V266.059C1571.91 265.592 1571.75 265.203 1571.44 264.892C1571.13 264.581 1570.74 264.425 1570.27 264.425C1568.25 264.425 1566.01 264.519 1563.55 264.705C1561.13 264.892 1559.17 265.032 1557.67 265.125V259.292Z" fill="white"/>
<path d="M223.52 29.5L225.65 31.61C225.714 31.6675 225.785 31.7178 225.86 31.76L237.38 43.01C237.467 43.0713 237.548 43.1416 237.62 43.22L286.67 90.85L293.22 97.2V214.72L269.29 237.93L223.52 282.38V29.5Z" fill="url(#paint0_linear)"/>
<path d="M293.22 0.0100098L311.81 18.08L340.26 45.6801L364.95 69.6801L453.81 155.93L365.01 242.14L364.92 242.23L339.92 266.5L311.81 293.81L293.19 311.88V214.72L311.81 196.64L323.81 185.07L353.81 155.93L324.13 127.15L311.81 115.27L293.19 97.2L293.22 0.0100098Z" fill="url(#paint1_linear)"/>
<path d="M293.22 214.72V311.88L225.71 283.34L223.58 282.44L293.22 214.72Z" fill="url(#paint2_linear)"/>
<path d="M293.23 0.0100098V97.18L223.5 29.51L293.23 0.0100098Z" fill="url(#paint3_linear)"/>
<g style="mix-blend-mode:multiply" opacity="0.25">
<path d="M365.01 69.6801L453.87 155.93L365.07 242.14C371.98 234.48 379.14 227.14 386.18 219.59C393.22 212.04 400.52 204.73 407.8 197.4C415.08 190.07 422.38 182.78 429.66 175.47L449.57 155.93L429.66 136.41C422.38 129.1 415.02 121.86 407.8 114.49C400.58 107.12 393.33 99.72 386.18 92.29C379.03 84.86 371.95 77.3801 365.01 69.6801Z" fill="black"/>
</g>
<g style="mix-blend-mode:screen" opacity="0.5">
<path d="M223.52 57.01C224.03 66.42 224.3 75.8101 224.69 85.1901C225.08 94.5701 225.26 103.98 225.53 113.37C225.95 132.13 226.23 150.903 226.37 169.69L226.49 197.87L226.4 226.04L226.16 254.19C226.07 261.89 225.92 269.59 225.77 277.32L233.71 269.95C237.65 266.34 241.56 262.73 245.53 259.18C253.44 252.09 261.26 244.9 269.29 237.92L223.52 282.37V57.01Z" fill="white"/>
</g>
<g style="mix-blend-mode:multiply" opacity="0.16">
<path d="M323.81 185.07C325.912 212.767 331.355 240.109 340.02 266.5L311.81 293.81L293.19 311.88V214.72L311.81 196.64L323.81 185.07Z" fill="black"/>
</g>
<g style="mix-blend-mode:multiply" opacity="0.16">
<path d="M293.22 0.0100098L311.81 18.08L340.26 45.6801C331.92 72.1689 326.485 99.4861 324.05 127.15L311.81 115.27L293.19 97.2L293.22 0.0100098Z" fill="black"/>
</g>
<g style="mix-blend-mode:screen" opacity="0.25">
<path d="M225.65 31.61C225.715 31.6675 225.785 31.7178 225.86 31.76L237.38 43.01C237.467 43.0713 237.548 43.1416 237.62 43.22L286.67 90.85C287.67 92.11 288.17 92.85 288.17 92.85C288.17 92.85 283.54 89.75 277.17 84.52C273.95 81.93 270.31 78.8 266.49 75.34C264.63 73.63 262.61 71.89 260.69 69.99C258.77 68.09 256.75 66.26 254.76 64.37C252.77 62.48 250.91 60.49 249.02 58.59C247.13 56.69 245.32 54.71 243.55 52.85C240.06 49.12 236.84 45.54 234.19 42.38C228.87 36.15 225.65 31.61 225.65 31.61Z" fill="white"/>
</g>
<g style="mix-blend-mode:screen" opacity="0.4">
<path d="M229.53 43.76C234.04 132.76 246.07 195.41 259.53 239.02L241.34 256.7C241.263 256.762 241.192 256.833 241.13 256.91L229.52 268.16L229.53 43.76Z" fill="white"/>
</g>
<g style="mix-blend-mode:screen" opacity="0.25">
<path d="M263.69 251.77C271.27 273.77 279.12 290.26 286.19 302.38L283.09 301.05H282.97L234.19 280.43L244.51 270.43L263.69 251.77Z" fill="white"/>
</g>
<g style="mix-blend-mode:screen" opacity="0.35">
<path d="M244.51 270.38C242.97 272.28 241.38 274.02 239.82 275.82C238.58 277.24 237.29 278.59 236.03 279.97C243.85 282.89 251.57 286.05 259.21 289.39C263.21 291.19 267.27 293.06 271.21 294.95C273.21 295.95 275.21 296.95 277.21 297.95C279.21 298.95 281.15 299.95 283.1 301.07H282.98L234.2 280.45L244.51 270.38Z" fill="white"/>
</g>
<g style="mix-blend-mode:screen" opacity="0.5">
<path d="M229.53 128.2C229.83 134.03 229.98 139.87 230.19 145.7C230.4 151.53 230.46 157.37 230.61 163.17C230.92 174.84 230.86 186.51 230.98 198.17C231.1 209.83 230.88 221.5 230.86 233.17C230.86 239.01 230.7 244.84 230.58 250.67C230.43 256.03 230.37 261.38 230.19 266.73C233.83 263.45 237.44 260.12 241.19 256.93L229.58 268.18L229.53 128.2Z" fill="white"/>
</g>
<path d="M148.34 80.01L123.66 104.7L123.6 104.76L116.72 111.65C117.81 110.26 118.87 108.85 119.84 107.41C123.997 101.528 127.453 95.1822 130.14 88.5C139.649 65.0771 139.552 38.8519 129.87 15.5V15.5C129.838 15.4481 129.818 15.3902 129.81 15.33C128.58 12.41 127.19 9.53002 125.69 6.77002C131.28 7.79693 136.61 9.92485 141.37 13.03C142.02 13.44 142.64 13.88 143.26 14.33C145.043 15.6228 146.715 17.0611 148.26 18.63C152.303 22.6508 155.513 27.43 157.705 32.6935C159.898 37.957 161.031 43.6015 161.038 49.3035C161.046 55.0054 159.928 60.6528 157.749 65.922C155.57 71.1912 152.372 75.9786 148.34 80.01V80.01Z" fill="url(#paint4_linear)"/>
<path d="M120.02 261.7L82.54 299.17C78.5133 303.199 73.7321 306.396 68.4696 308.576C63.2071 310.757 57.5665 311.88 51.87 311.88C46.1735 311.88 40.5329 310.757 35.2704 308.576C30.0079 306.396 25.2267 303.199 21.2 299.17C19.2152 297.185 17.433 295.008 15.88 292.67C15.82 292.61 15.79 292.55 15.73 292.49C15.67 292.43 15.67 292.49 15.67 292.41C10.1799 284.069 7.73234 274.091 8.73962 264.157C9.74691 254.223 14.1475 244.939 21.2 237.87L58.68 200.39L62.06 203.77L113.34 255.01L120.02 261.7Z" fill="url(#paint5_linear)"/>
<path d="M150.67 231.01L122.28 259.4L120.02 261.67L118.1 259.43C114.051 254.753 110.281 249.841 106.81 244.72C106.745 244.629 106.675 244.542 106.6 244.46C72.6001 194.07 88.7801 151.06 98.8101 132.94C98.8282 132.853 98.8658 132.771 98.9201 132.7V132.7C98.9201 132.7 98.9201 132.7 98.9201 132.64C100.609 129.541 102.527 126.572 104.66 123.76L120.96 140.06L150.64 169.74C154.185 173.267 157.082 177.39 159.2 181.92C159.2 181.92 159.2 181.98 159.2 182C162.986 190.056 164.198 199.082 162.671 207.851C161.145 216.621 156.955 224.707 150.67 231.01V231.01Z" fill="url(#paint6_linear)"/>
<g style="mix-blend-mode:multiply" opacity="0.16">
<path d="M130.14 88.55C139.649 65.1272 139.552 38.9019 129.87 15.55V15.55C129.839 15.4981 129.818 15.4402 129.81 15.38C128.58 12.46 127.19 9.58007 125.69 6.82007C131.28 7.84698 136.61 9.97478 141.37 13.08C148.43 31.76 153.17 66.27 119.84 107.48C123.998 101.592 127.455 95.2392 130.14 88.55Z" fill="black"/>
</g>
<g style="mix-blend-mode:multiply" opacity="0.16">
<path d="M123.66 261.7H120.02L118.1 259.46C114.05 254.773 110.28 249.851 106.81 244.72C106.745 244.629 106.675 244.542 106.6 244.46C72.6001 194.07 88.7801 151.06 98.8101 132.94C98.8282 132.853 98.8658 132.771 98.9201 132.7V132.7C98.9201 132.7 98.9201 132.7 98.9201 132.64C100.609 129.541 102.527 126.572 104.66 123.76L120.96 140.06C108.42 161.77 90.3901 207.89 122.25 259.46C122.69 260.19 123.16 260.93 123.66 261.7Z" fill="black"/>
</g>
<g style="mix-blend-mode:multiply" opacity="0.16">
<path d="M120.02 261.7C84.6601 231.1 54.3601 223.7 36.6501 222.42L58.6501 200.42L62.0301 203.8L113.34 255.01L120.02 261.7Z" fill="black"/>
</g>
<path d="M137.2 52.39C137.2 54.25 137.14 56.07 137.02 57.89C136.96 59.16 136.87 60.4201 136.75 61.6601C136.75 61.9201 136.7 62.19 136.67 62.48C136.55 63.6 136.43 64.7201 136.25 65.8101C136.2 66.2501 136.14 66.7201 136.05 67.1601C135.87 68.4801 135.64 69.7801 135.37 71.0701C135.08 72.6001 134.75 74.0701 134.37 75.5701C133.99 77.0701 133.61 78.57 133.17 79.99C132.317 82.873 131.315 85.7101 130.17 88.49C130.175 88.5097 130.175 88.5304 130.17 88.5501C129.337 90.6634 128.423 92.72 127.43 94.72C126.93 95.72 126.43 96.72 125.87 97.72C125.52 98.4 125.16 99.05 124.75 99.72C124.34 100.39 123.96 101.14 123.52 101.84C123.45 102.007 123.36 102.165 123.25 102.31C122.66 103.31 122.08 104.25 121.43 105.2L121.25 105.46C120.58 106.52 119.84 107.55 119.1 108.58C118.36 109.61 117.55 110.67 116.75 111.7L104.75 123.7C104.75 123.7 103.75 124.93 102.22 127.26C101.78 127.93 101.28 128.73 100.72 129.64C100.63 129.79 100.51 129.96 100.42 130.14C99.98 130.91 99.51 131.7 99.01 132.58C99.01 132.58 99.01 132.58 99.01 132.64C98.9557 132.711 98.9181 132.793 98.9 132.88C96.9651 136.368 95.2452 139.972 93.75 143.67C93.45 144.38 93.16 145.08 92.9 145.82C92.64 146.56 92.34 147.32 92.07 148.09C90.5445 152.333 89.3149 156.677 88.39 161.09C88.19 161.88 88.04 162.68 87.89 163.5C87.57 165.06 87.34 166.65 87.1 168.29C86.89 169.77 86.72 171.29 86.6 172.8C86.5198 173.354 86.4698 173.911 86.45 174.47C86.36 175.38 86.31 176.3 86.28 177.24C85.8049 187.416 86.8943 197.604 89.51 207.45C89.81 208.57 90.13 209.71 90.51 210.86C91.3433 213.66 92.3167 216.483 93.43 219.33C93.75 220.16 94.07 220.95 94.43 221.75C94.79 222.55 95.13 223.45 95.51 224.3C95.89 225.15 96.28 226.01 96.69 226.86C97.1 227.71 97.51 228.6 97.96 229.45C100.508 234.531 103.377 239.444 106.55 244.16C106.55 244.25 106.66 244.31 106.72 244.4C106.795 244.482 106.865 244.569 106.93 244.66C108.25 246.66 109.69 248.66 111.22 250.66C113.4 253.54 115.75 256.49 118.28 259.43C118.9 260.16 119.52 260.87 120.17 261.61L113.52 254.96L62.39 203.83L62.27 203.74L58.89 200.36L25.35 167.01L25.23 166.89C25.23 166.89 25.15 166.83 25.12 166.81L12.73 154.39C8.84231 150.519 5.73588 145.935 3.58001 140.89C0.132964 132.919 -0.837772 124.096 0.793935 115.567C2.42564 107.037 6.58436 99.1957 12.73 93.0601L87.07 18.72C94.4675 11.2964 104.321 6.83006 114.78 6.16006C118.439 5.90164 122.117 6.12016 125.72 6.81008C126.46 8.19008 127.19 9.60006 127.87 11.0401C128.46 12.2201 128.99 13.42 129.52 14.63C129.614 14.882 129.721 15.129 129.84 15.37C129.849 15.3959 129.849 15.4241 129.84 15.45C129.829 15.4893 129.829 15.5308 129.84 15.5701C130.43 16.9801 130.99 18.43 131.52 19.87C132.05 21.31 132.52 22.78 132.99 24.25V24.34C133.37 25.57 133.72 26.8101 134.05 28.0401C134.19 28.5701 134.34 29.1 134.46 29.63C134.72 30.63 134.96 31.69 135.16 32.75C135.66 35.22 136.08 37.69 136.4 40.22C136.52 41.22 136.64 42.22 136.72 43.22C136.8 44.22 136.9 45.22 136.96 46.22C137.02 47.22 137.08 48.2201 137.11 49.2801C137.14 50.3401 137.2 51.36 137.2 52.39Z" fill="url(#paint7_linear)"/>
<g style="mix-blend-mode:multiply" opacity="0.25">
<path d="M150.67 231.01L120.02 261.67L82.5401 299.14C78.5134 303.169 73.7322 306.366 68.4697 308.547C63.2072 310.727 57.5666 311.85 51.8701 311.85C46.1737 311.85 40.533 310.727 35.2705 308.547C30.008 306.366 25.2268 303.169 21.2001 299.14C19.2153 297.155 17.4332 294.978 15.8801 292.64C16.1101 292.97 16.5801 293.52 17.2301 294.32C18.7893 296.13 20.4806 297.821 22.2901 299.38C25.0549 301.78 28.1085 303.826 31.3801 305.47C35.6027 307.518 40.1214 308.888 44.7701 309.53C50.199 310.268 55.7192 309.956 61.0301 308.61C68.4482 306.73 75.2009 302.832 80.5401 297.35C81.7101 296.14 82.8901 294.94 84.1001 293.73L91.3301 286.32L106.22 271.32C110.16 267.44 114.1 263.53 117.99 259.68L118.13 259.53C119.19 258.53 120.22 257.47 121.25 256.44C126.16 251.53 131.14 246.79 135.9 242.14L149.64 228.93C151.638 226.922 153.449 224.736 155.05 222.4C156.545 220.198 157.818 217.853 158.85 215.4C160.676 211.084 161.816 206.508 162.23 201.84C162.511 198.198 162.354 194.535 161.76 190.93C161.333 188.585 160.742 186.272 159.99 184.01C159.64 183.01 159.41 182.34 159.26 181.95C163.049 190.018 164.258 199.058 162.721 207.838C161.183 216.618 156.975 224.71 150.67 231.01Z" fill="black"/>
</g>
<g style="mix-blend-mode:screen" opacity="0.5">
<path d="M114.75 6.15002C114.43 6.15002 113.66 6.3 112.46 6.5C110.162 6.93076 107.899 7.53248 105.69 8.30005C102.289 9.48237 99.0479 11.0812 96.04 13.0601C94.2272 14.2647 92.5058 15.6017 90.8901 17.0601C89.1901 18.5901 87.5701 20.39 85.7701 22.33C78.6601 29.98 70.2701 38.8 61.2101 48.16C56.6501 52.8 51.9401 57.63 47.2101 62.54C42.4801 67.45 37.5 72.34 32.62 77.28L17.81 91.9C16.63 93.08 15.28 94.3701 14.28 95.4301L12.5101 97.28L11.04 99.05C9.12667 101.477 7.48989 104.11 6.16002 106.9C3.76628 112.027 2.4242 117.581 2.21294 123.235C2.00168 128.89 2.92555 134.529 4.93004 139.82C6.52425 144.13 8.80727 148.152 11.6901 151.73C14.3401 154.88 16.99 157.62 18.99 159.88C22.49 163.77 24.66 166.27 25.16 166.88C25.16 166.88 25.08 166.82 25.05 166.8L12.66 154.38C8.77236 150.509 5.66594 145.925 3.51006 140.88C0.0630178 132.909 -0.907718 124.086 0.723989 115.557C2.3557 107.027 6.51441 99.1856 12.66 93.05L87.0001 18.71C94.4077 11.2776 104.277 6.81047 114.75 6.15002V6.15002Z" fill="white"/>
</g>
<g style="mix-blend-mode:multiply" opacity="0.25">
<path d="M143.31 14.39V14.34C143.31 14.34 143.28 14.36 143.31 14.39Z" fill="black"/>
</g>
<g style="mix-blend-mode:multiply" opacity="0.25">
<path d="M148.34 80.01L123.66 104.7C124.22 103.99 128.22 98.7 134.52 91.46C137.9 87.55 141.93 83.07 146.31 78.37C147.31 77.19 148.31 75.95 149.4 74.75C150.2 73.45 151.14 72.31 151.93 70.95C152.771 69.6022 153.519 68.199 154.17 66.75L155.17 64.5701L155.93 62.3101C156.988 59.3025 157.69 56.1811 158.02 53.01C158.33 49.9178 158.33 46.8022 158.02 43.71C157.93 42.98 157.85 42.21 157.79 41.48C157.73 40.75 157.49 40.04 157.35 39.3C157.09 37.8945 156.736 36.508 156.29 35.15C155.913 33.8371 155.449 32.5509 154.9 31.3C154.452 30.0995 153.924 28.9302 153.32 27.8C152.256 25.8079 151.084 23.875 149.81 22.01C149.22 21.19 148.63 20.43 148.1 19.72C147.6 19.0791 147.059 18.4713 146.48 17.9C144.69 15.96 143.57 14.72 143.33 14.45C145.113 15.7428 146.785 17.1811 148.33 18.75C156.449 26.8752 161.011 37.8913 161.013 49.3779C161.015 60.8646 156.457 71.8822 148.34 80.01V80.01Z" fill="black"/>
</g>
<g style="mix-blend-mode:screen" opacity="0.5">
<path d="M113.34 255.01L62.0901 203.79C62.5301 204.09 66.1801 206.62 71.0901 210.79C73.7401 212.94 76.74 215.56 79.86 218.44C81.42 219.91 83.07 221.35 84.66 222.94C86.25 224.53 87.86 226.09 89.48 227.65C92.66 230.92 95.8301 234.12 98.6901 237.3C101.55 240.48 104.19 243.42 106.37 246.04C110.51 250.93 113.04 254.58 113.34 255.01Z" fill="white"/>
</g>
<g style="mix-blend-mode:screen" opacity="0.5">
<path d="M98.92 132.7L98.98 132.64C98.98 132.64 98.92 132.67 98.92 132.7Z" fill="white"/>
</g>
<g style="mix-blend-mode:screen" opacity="0.5">
<path d="M106.57 244.46C106.16 243.93 105.13 242.6 103.66 240.66L100.16 235.93C98.9501 233.93 97.6301 231.78 96.2201 229.34C94.6656 226.729 93.2891 224.016 92.1001 221.22C90.6402 218.145 89.4005 214.97 88.3901 211.72C87.7502 210.032 87.2289 208.301 86.8301 206.54C86.3601 204.77 85.9201 202.98 85.5101 201.15C85.1001 199.32 84.9201 197.45 84.6001 195.57C84.2671 193.701 84.0401 191.815 83.9201 189.92C83.8001 188.03 83.7101 186.12 83.6301 184.24C83.5501 182.36 83.6901 180.47 83.7401 178.59C83.745 176.739 83.8853 174.891 84.1601 173.06C84.4201 171.24 84.5101 169.44 84.8901 167.71C85.2701 165.98 85.5401 164.24 85.8901 162.56C86.2401 160.88 86.7801 159.29 87.1901 157.73C88.0181 154.793 89.0198 151.908 90.1901 149.09C91.1271 146.704 92.1851 144.368 93.3601 142.09C94.3601 140.09 95.4201 138.36 96.2201 136.92C97.0201 135.48 97.8101 134.48 98.2801 133.74C98.4504 133.465 98.6375 133.202 98.8402 132.95C96.9053 136.438 95.1854 140.042 93.6901 143.74C93.3901 144.45 93.1002 145.15 92.8402 145.89C92.5802 146.63 92.2801 147.39 92.0101 148.16C90.4846 152.403 89.255 156.747 88.3301 161.16C88.1301 161.95 87.9801 162.75 87.8301 163.57C87.5101 165.13 87.2801 166.72 87.0401 168.36C86.8301 169.84 86.6601 171.36 86.5401 172.87C86.4599 173.424 86.4099 173.981 86.3901 174.54C86.3001 175.45 86.2501 176.37 86.2201 177.31C85.745 187.486 86.8344 197.675 89.4501 207.52C89.7501 208.64 90.0701 209.78 90.4501 210.93C91.2835 213.73 92.2568 216.553 93.3701 219.4C93.6901 220.23 94.0101 221.02 94.3701 221.82C94.7301 222.62 95.0701 223.52 95.4501 224.37C95.8301 225.22 96.2201 226.08 96.6301 226.93C97.0401 227.78 97.4502 228.67 97.9002 229.52C100.457 234.686 103.354 239.677 106.57 244.46V244.46Z" fill="white"/>
</g>
<g style="mix-blend-mode:screen" opacity="0.5">
<path d="M137.2 52.39C137.2 54.25 137.14 56.07 137.02 57.89C136.96 59.16 136.87 60.42 136.75 61.66C136.75 61.92 136.7 62.19 136.67 62.48C136.55 63.6 136.43 64.7201 136.25 65.8101C136.2 66.2501 136.14 66.72 136.05 67.16C135.87 68.48 135.64 69.7801 135.37 71.0701C135.08 72.6001 134.75 74.0701 134.37 75.5701C133.99 77.0701 133.61 78.57 133.17 79.99C132.317 82.873 131.316 85.7101 130.17 88.49C130.26 88.1 130.47 87.0501 130.82 85.4301C131.29 83.4301 131.88 80.54 132.5 77.13C133.12 73.72 133.7 69.69 134.09 65.42C134.35 63.28 134.41 61.0401 134.56 58.8101C134.71 56.5801 134.73 54.27 134.7 51.98C134.67 49.69 134.7 47.39 134.53 45.16C134.36 42.93 134.23 40.68 134 38.54C133.53 34.24 132.91 30.27 132.29 26.83C131.67 23.39 131 20.56 130.56 18.53C130.2 17.03 129.97 16 129.88 15.53C130.47 16.94 131.03 18.39 131.56 19.83C132.09 21.27 132.56 22.74 133.03 24.21V24.3C133.41 25.53 133.76 26.77 134.09 28C134.23 28.53 134.38 29.06 134.5 29.59C134.76 30.59 135 31.65 135.2 32.71C135.7 35.18 136.12 37.6501 136.44 40.1801C136.56 41.1801 136.68 42.1801 136.76 43.1801C136.84 44.1801 136.94 45.1801 137 46.1801C137.06 47.1801 137.12 48.18 137.15 49.24C137.18 50.3 137.2 51.36 137.2 52.39Z" fill="white"/>
</g>
<g style="mix-blend-mode:screen" opacity="0.35">
<path d="M62.8901 192.12L31.5901 160.79L29.1501 158.09H28.8101L18.9001 148.15C12.4253 141.666 8.78857 132.878 8.78857 123.715C8.78857 114.552 12.4253 105.764 18.9001 99.28L93.2401 24.95C99.1126 19.0512 106.934 15.4959 115.24 14.95C116.09 14.95 116.86 14.87 117.62 14.87C118.38 14.87 119.12 14.87 119.86 14.95C31.26 84.28 46.7101 156.41 62.8901 192.12Z" fill="white"/>
</g>
</g>
<defs>
<linearGradient id="paint0_linear" x1="223.3" y1="155.94" x2="293.78" y2="155.94" gradientUnits="userSpaceOnUse">
<stop stop-color="#FF2F5E"/>
<stop offset="0.25" stop-color="#FC2D5D"/>
<stop offset="0.46" stop-color="#F12759"/>
<stop offset="0.66" stop-color="#E01D52"/>
<stop offset="0.85" stop-color="#C70F48"/>
<stop offset="1" stop-color="#AD003E"/>
</linearGradient>
<linearGradient id="paint1_linear" x1="450.33" y1="155.94" x2="299.78" y2="155.94" gradientUnits="userSpaceOnUse">
<stop stop-color="#FF2F5E"/>
<stop offset="0.3" stop-color="#EB2352"/>
<stop offset="0.91" stop-color="#B70532"/>
<stop offset="1" stop-color="#AF002D"/>
</linearGradient>
<linearGradient id="paint2_linear" x1="258.37" y1="311.88" x2="258.37" y2="214.72" gradientUnits="userSpaceOnUse">
<stop stop-color="#FF005E"/>
<stop offset="0.34" stop-color="#F70057"/>
<stop offset="0.86" stop-color="#E30044"/>
<stop offset="1" stop-color="#DC003E"/>
</linearGradient>
<linearGradient id="paint3_linear" x1="258.36" y1="97.18" x2="258.36" y2="0.0100098" gradientUnits="userSpaceOnUse">
<stop stop-color="#DC003E"/>
<stop offset="0.34" stop-color="#E40045"/>
<stop offset="0.86" stop-color="#F80058"/>
<stop offset="1" stop-color="#FF005E"/>
</linearGradient>
<linearGradient id="paint4_linear" x1="125.21" y1="59.25" x2="165.21" y2="59.25" gradientUnits="userSpaceOnUse">
<stop stop-color="#E7003E"/>
<stop offset="0.6" stop-color="#C1003E"/>
<stop offset="1" stop-color="#AD003E"/>
</linearGradient>
<linearGradient id="paint5_linear" x1="98.99" y1="221.4" x2="21.52" y2="298.87" gradientUnits="userSpaceOnUse">
<stop stop-color="#AD003E"/>
<stop offset="1" stop-color="#AD003E"/>
</linearGradient>
<linearGradient id="paint6_linear" x1="82.0601" y1="192.71" x2="158.56" y2="192.71" gradientUnits="userSpaceOnUse">
<stop stop-color="#AD003E"/>
<stop offset="0.11" stop-color="#B70042"/>
<stop offset="0.71" stop-color="#EB0056"/>
<stop offset="1" stop-color="#FF005E"/>
</linearGradient>
<linearGradient id="paint7_linear" x1="76905.7" y1="344714" x2="97900.7" y2="344714" gradientUnits="userSpaceOnUse">
<stop stop-color="#FF2F5E"/>
<stop offset="0.25" stop-color="#FC2D5D"/>
<stop offset="0.46" stop-color="#F12759"/>
<stop offset="0.66" stop-color="#E01D52"/>
<stop offset="0.85" stop-color="#C70F48"/>
<stop offset="1" stop-color="#AD003E"/>
</linearGradient>
<clipPath id="clip0">
<rect width="1618.5" height="311.88" fill="white"/>
</clipPath>
</defs>
</svg>
