<svg xmlns="http://www.w3.org/2000/svg" xmlns:xlink="http://www.w3.org/1999/xlink" viewBox="0 0 2835.65 2835.65"><defs><style>.cls-1{isolation:isolate;}.cls-2{fill:#191919;stroke:#1d1d1b;stroke-miterlimit:10;}.cls-3{font-size:178.55px;}.cls-11,.cls-13,.cls-14,.cls-15,.cls-3,.cls-4{fill:#fff;}.cls-3,.cls-4{font-family:RussoOne-Regular, Russo One;}.cls-4{font-size:46.67px;}.cls-5{letter-spacing:-0.02em;}.cls-6{fill:url(#linear-gradient);}.cls-7{fill:url(#linear-gradient-2);}.cls-8{fill:url(#linear-gradient-3);}.cls-9{fill:url(#linear-gradient-4);}.cls-10,.cls-13{opacity:0.25;}.cls-10,.cls-12{mix-blend-mode:multiply;}.cls-11{opacity:0.5;}.cls-11,.cls-13,.cls-14,.cls-15{mix-blend-mode:screen;}.cls-12{opacity:0.16;}.cls-14{opacity:0.4;}.cls-15{opacity:0.35;}.cls-16{fill:url(#linear-gradient-5);}.cls-17{fill:url(#linear-gradient-6);}.cls-18{fill:url(#linear-gradient-7);}.cls-19{fill:url(#linear-gradient-8);}</style><linearGradient id="linear-gradient" x1="1372.44" y1="390.21" x2="1372.44" y2="460.69" gradientTransform="translate(456.38 2732.46) rotate(-90)" gradientUnits="userSpaceOnUse"><stop offset="0" stop-color="#ff2f5e"/><stop offset="0.25" stop-color="#fc2d5d"/><stop offset="0.46" stop-color="#f12759"/><stop offset="0.66" stop-color="#e01d52"/><stop offset="0.85" stop-color="#c70f48"/><stop offset="1" stop-color="#ad003e"/></linearGradient><linearGradient id="linear-gradient-2" x1="1372.44" y1="617.24" x2="1372.44" y2="466.69" gradientTransform="translate(456.38 2732.46) rotate(-90)" gradientUnits="userSpaceOnUse"><stop offset="0" stop-color="#ff2f5e"/><stop offset="0.3" stop-color="#eb2352"/><stop offset="0.91" stop-color="#b70532"/><stop offset="1" stop-color="#af002d"/></linearGradient><linearGradient id="linear-gradient-3" x1="1216.5" y1="425.28" x2="1313.66" y2="425.28" gradientTransform="translate(456.38 2732.46) rotate(-90)" gradientUnits="userSpaceOnUse"><stop offset="0" stop-color="#ff005e"/><stop offset="0.34" stop-color="#f70057"/><stop offset="0.86" stop-color="#e30044"/><stop offset="1" stop-color="#dc003e"/></linearGradient><linearGradient id="linear-gradient-4" x1="1431.2" y1="425.27" x2="1528.37" y2="425.27" gradientTransform="translate(456.88 2731.49) rotate(-90)" gradientUnits="userSpaceOnUse"><stop offset="0" stop-color="#dc003e"/><stop offset="0.34" stop-color="#e40045"/><stop offset="0.86" stop-color="#f80058"/><stop offset="1" stop-color="#ff005e"/></linearGradient><linearGradient id="linear-gradient-5" x1="748.5" y1="1263.32" x2="788.5" y2="1263.32" gradientUnits="userSpaceOnUse"><stop offset="0" stop-color="#e7003e"/><stop offset="0.6" stop-color="#c1003e"/><stop offset="1" stop-color="#ad003e"/></linearGradient><linearGradient id="linear-gradient-6" x1="722.28" y1="1425.48" x2="644.81" y2="1502.95" gradientUnits="userSpaceOnUse"><stop offset="0" stop-color="#ad003e"/><stop offset="1" stop-color="#ad003e"/></linearGradient><linearGradient id="linear-gradient-7" x1="705.35" y1="1396.79" x2="781.85" y2="1396.79" gradientUnits="userSpaceOnUse"><stop offset="0" stop-color="#ad003e"/><stop offset="0.11" stop-color="#b70042"/><stop offset="0.71" stop-color="#eb0056"/><stop offset="1" stop-color="#ff005e"/></linearGradient><linearGradient id="linear-gradient-8" x1="623.73" y1="1337.95" x2="776.78" y2="1337.95" gradientTransform="matrix(1, 0, 0, 1, 0, 0)" xlink:href="#linear-gradient"/></defs><g class="cls-1"><g id="Layer_1" data-name="Layer 1"><rect class="cls-2" x="0.5" y="0.5" width="2834.65" height="2834.65"/></g><g id="Layer_2" data-name="Layer 2"><text class="cls-3" transform="translate(1121.8 1382.87)">Shining Dub</text><text class="cls-4" transform="translate(1147.19 1460.6)">Быстрый перевод - качественная оз<tspan class="cls-5" x="893.98" y="0">в</tspan><tspan x="921.05" y="0">учка</tspan></text></g><g id="Layer_3" data-name="Layer 3"><path class="cls-6" d="M846.81,1233.58l2.13,2.11a1.19,1.19,0,0,0,.21.15l11.52,11.24a1.2,1.2,0,0,1,.24.22L910,1294.93l6.55,6.34V1418.8L892.58,1442l-45.77,44.45Z" transform="translate(0.5 -0.97)"/><path class="cls-7" d="M916.51,1204.08l18.62,18.07,28.45,27.61,24.69,24,0,0,88.86,86.25-88.8,86.21-.09.09-25,24.27-28.15,27.31L916.51,1516V1418.8l18.62-18.08,11.94-11.57,30-29.14-29.68-28.78-12.24-11.88-18.62-18.08Z" transform="translate(0.5 -0.97)"/><path class="cls-8" d="M916.51,1418.8V1516l0,0L849,1487.39a0,0,0,0,0,0,0l-2.13-.9Z" transform="translate(0.5 -0.97)"/><polygon class="cls-9" points="917.01 1203.12 917.01 1300.29 847.29 1232.62 917.01 1203.12"/><path class="cls-10" d="M988.3,1273.76l88.86,86.25-88.8,86.21c6.91-7.67,14.07-15,21.11-22.55s14.34-14.86,21.62-22.2,14.58-14.61,21.86-21.92l19.91-19.54L1053,1340.49c-7.28-7.31-14.64-14.56-21.86-21.92s-14.47-14.77-21.62-22.2S995.24,1281.46,988.3,1273.76Z" transform="translate(0.5 -0.97)"/><path class="cls-11" d="M846.81,1261.1c.51,9.41.78,18.79,1.17,28.18s.57,18.79.84,28.17q.63,28.15.84,56.33l.12,28.18-.09,28.17-.24,28.15c-.09,7.7-.24,15.4-.39,23.13L857,1474c3.94-3.61,7.85-7.22,11.82-10.77,7.91-7.09,15.73-14.28,23.76-21.26l-45.77,44.45Z" transform="translate(0.5 -0.97)"/><path class="cls-12" d="M947.07,1389.15a344.63,344.63,0,0,0,16.21,81.43l-28.15,27.31L916.51,1516V1418.8l18.62-18.08Z" transform="translate(0.5 -0.97)"/><path class="cls-12" d="M916.51,1204.08l18.62,18.07,28.45,27.61a383.11,383.11,0,0,0-16.21,81.47l-12.24-11.88-18.62-18.08Z" transform="translate(0.5 -0.97)"/><path class="cls-13" d="M848.94,1235.69a1.19,1.19,0,0,0,.21.15l11.52,11.24a1.2,1.2,0,0,1,.24.22L910,1294.93c1,1.26,1.5,2,1.5,2s-4.63-3.09-11-8.33c-3.22-2.58-6.86-5.71-10.68-9.17-1.86-1.71-3.88-3.46-5.8-5.35s-3.94-3.73-5.93-5.62-3.85-3.88-5.74-5.78-3.7-3.88-5.47-5.74c-3.49-3.73-6.71-7.31-9.36-10.47C852.16,1240.23,848.94,1235.69,848.94,1235.69Z" transform="translate(0.5 -0.97)"/><path class="cls-14" d="M852.82,1247.84c4.51,89,16.54,151.65,30,195.25l-18.19,17.69a1.39,1.39,0,0,0-.21.21l-11.61,11.24Z" transform="translate(0.5 -0.97)"/><path class="cls-13" d="M887,1455.85c7.58,22,15.43,38.49,22.5,50.61l-3.1-1.33-.12,0-48.78-20.63,10.32-10,0,0Z" transform="translate(0.5 -0.97)"/><path class="cls-15" d="M867.8,1474.46c-1.54,1.89-3.13,3.64-4.69,5.44-1.24,1.42-2.53,2.77-3.79,4.15,7.82,2.92,15.54,6.08,23.18,9.42,4,1.8,8.06,3.66,12,5.56,2,1,4,2,6,3s3.94,2,5.89,3.12l-.12,0-48.78-20.63Z" transform="translate(0.5 -0.97)"/><path class="cls-11" d="M852.82,1332.28c.3,5.83.45,11.67.66,17.5s.27,11.67.42,17.47c.31,11.67.25,23.34.37,35s-.1,23.33-.12,35c0,5.83-.16,11.67-.28,17.5-.15,5.36-.21,10.71-.39,16.06,3.64-3.28,7.25-6.62,10.95-9.8l-11.61,11.24Z" transform="translate(0.5 -0.97)"/><path class="cls-16" d="M771.63,1284.12,747,1308.8v0l-.06.06-6.88,6.89c1.09-1.39,2.15-2.8,3.12-4.24a92.75,92.75,0,0,0,10.3-18.92,96.14,96.14,0,0,0-.27-73v0a.43.43,0,0,1-.06-.18c-1.23-2.91-2.62-5.79-4.12-8.56a42.9,42.9,0,0,1,15.68,6.27c.65.41,1.27.85,1.89,1.29,0,0,0,0,.05,0v0a39.87,39.87,0,0,1,5,4.3A43.34,43.34,0,0,1,771.63,1284.12Z" transform="translate(0.5 -0.97)"/><path class="cls-17" d="M743.31,1465.77l-37.48,37.48a43.36,43.36,0,0,1-61.34,0,42.73,42.73,0,0,1-5.32-6.5c-.06-.06-.09-.12-.15-.18s-.06-.06-.06-.09a43.41,43.41,0,0,1,5.53-54.53L682,1404.47l3.38,3.38,0,0,51.25,51.22,0,0Z" transform="translate(0.5 -0.97)"/><path class="cls-18" d="M774,1435.12l-28.39,28.39-2.26,2.26-1.92-2.23a158.68,158.68,0,0,1-11.32-14.74,2.8,2.8,0,0,0-.21-.26c-34-50.4-17.82-93.4-7.79-111.53a.61.61,0,0,1,.11-.23h0s0,0,0-.06v0a69.59,69.59,0,0,1,5.74-8.88l16.3,16.29L774,1373.79a42.64,42.64,0,0,1,8.56,12.17s0,.06,0,.09A43.33,43.33,0,0,1,774,1435.12Z" transform="translate(0.5 -0.97)"/><path class="cls-12" d="M753.43,1292.62a96.14,96.14,0,0,0-.27-73v0a.43.43,0,0,1-.06-.18c-1.23-2.91-2.62-5.79-4.12-8.56a42.9,42.9,0,0,1,15.68,6.27c7.06,18.68,11.8,53.19-21.53,94.4A92.75,92.75,0,0,0,753.43,1292.62Z" transform="translate(0.5 -0.97)"/><path class="cls-12" d="M747,1465.77h-3.64l-1.92-2.23a158.68,158.68,0,0,1-11.32-14.74,2.8,2.8,0,0,0-.21-.26c-34-50.4-17.82-93.4-7.79-111.53a.61.61,0,0,1,.11-.23h0s0,0,0-.06v0a69.59,69.59,0,0,1,5.74-8.88l16.3,16.29c-12.54,21.71-30.57,67.84,1.29,119.41C746,1464.27,746.45,1465,747,1465.77Z" transform="translate(0.5 -0.97)"/><path class="cls-12" d="M743.31,1465.77c-35.36-30.59-65.66-38-83.37-39.27l22-22,3.38,3.38,0,0,51.25,51.22,0,0Z" transform="translate(0.5 -0.97)"/><path class="cls-19" d="M760.49,1256.47c0,1.85-.06,3.68-.18,5.5-.06,1.27-.15,2.53-.27,3.77,0,.26,0,.53-.08.82-.12,1.12-.24,2.24-.42,3.32,0,.45-.11.92-.2,1.36-.18,1.32-.41,2.62-.68,3.91-.29,1.53-.62,3-1,4.5s-.76,3-1.21,4.41a84.13,84.13,0,0,1-3,8.51.1.1,0,0,1,0,0q-1.24,3.18-2.74,6.18c-.5,1-1,2-1.56,3-.35.68-.71,1.33-1.12,2s-.79,1.41-1.23,2.12a2.4,2.4,0,0,1-.27.47c-.59,1-1.17,1.94-1.82,2.88l-.18.27c-.67,1.06-1.41,2.09-2.15,3.12s-1.55,2.09-2.35,3.12a0,0,0,0,1,0,0l-12,12s-1,1.23-2.53,3.56c-.44.67-.94,1.47-1.5,2.38-.09.15-.21.32-.3.5-.44.76-.91,1.56-1.41,2.44v0s0,0,0,.06h0a.61.61,0,0,0-.11.23,98.13,98.13,0,0,0-5.15,10.8c-.3.71-.59,1.41-.85,2.15s-.56,1.5-.83,2.26a98.18,98.18,0,0,0-3.68,13c-.2.79-.35,1.58-.5,2.41-.32,1.56-.55,3.15-.79,4.79-.21,1.47-.38,3-.5,4.5a15.88,15.88,0,0,0-.15,1.68c-.09.91-.14,1.82-.17,2.77a99.57,99.57,0,0,0,3.23,30.21c.3,1.11.62,2.26,1,3.41.83,2.79,1.8,5.62,2.92,8.47.32.83.64,1.62,1,2.41s.7,1.71,1.08,2.56.77,1.71,1.18,2.56.82,1.74,1.27,2.59a133.67,133.67,0,0,0,8.59,14.71c0,.09.11.15.17.24a2.8,2.8,0,0,1,.21.26c1.32,2,2.76,4,4.29,6,2.18,2.88,4.53,5.82,7.06,8.77.62.73,1.24,1.44,1.89,2.17l-6.65-6.64,0,0L685.5,1408l-.12-.09,0,0-3.38-3.38-33.33-33.36-.12-.12,0,0s-.08-.06-.11-.09L636,1358.46a42.77,42.77,0,0,1-9.15-13.5,43.3,43.3,0,0,1,9.15-47.83l74.34-74.34A43.46,43.46,0,0,1,749,1210.87c.74,1.39,1.47,2.8,2.15,4.24.59,1.18,1.12,2.38,1.65,3.59a7.71,7.71,0,0,0,.32.73.13.13,0,0,1,0,.09.23.23,0,0,0,0,.12c.59,1.41,1.15,2.85,1.68,4.3s1,2.91,1.47,4.38v.09c.38,1.23.73,2.47,1.06,3.7.14.53.29,1.06.41,1.59.26,1,.5,2.06.7,3.12.5,2.47.92,4.94,1.24,7.47.12,1,.24,2,.32,3s.18,2,.24,3,.12,2,.15,3.06S760.49,1255.44,760.49,1256.47Z" transform="translate(0.5 -0.97)"/><path class="cls-10" d="M774,1435.12l-30.65,30.65-37.48,37.48a43.36,43.36,0,0,1-61.34,0,42.73,42.73,0,0,1-5.32-6.5c.23.32.7.88,1.35,1.68a48.28,48.28,0,0,0,5.06,5.06,44,44,0,0,0,9.09,6.09,44.71,44.71,0,0,0,13.39,4.06,42.74,42.74,0,0,0,16.26-.92,41.48,41.48,0,0,0,16-8.09,41.06,41.06,0,0,0,3.47-3.17c1.17-1.21,2.35-2.42,3.56-3.62l7.23-7.41c4.92-5,9.92-10,14.89-15,3.94-3.88,7.88-7.79,11.77-11.65l.14-.14c1.06-1,2.09-2.06,3.12-3.09,4.91-4.91,9.89-9.65,14.65-14.3L772.93,1433a46.65,46.65,0,0,0,5.41-6.53,40.27,40.27,0,0,0,3.8-7,45,45,0,0,0,3.38-13.56,45.57,45.57,0,0,0-.47-10.91,50.43,50.43,0,0,0-1.77-6.92c-.35-1-.58-1.67-.73-2.06A43.33,43.33,0,0,1,774,1435.12Z" transform="translate(0.5 -0.97)"/><path class="cls-11" d="M738,1210.23c-.32,0-1.09.14-2.29.35a46.71,46.71,0,0,0-6.77,1.79,43.7,43.7,0,0,0-9.65,4.77,44.17,44.17,0,0,0-5.15,4c-1.7,1.53-3.32,3.32-5.12,5.27-7.11,7.64-15.5,16.47-24.56,25.82-4.56,4.65-9.27,9.48-14,14.39s-9.71,9.79-14.59,14.74L641.14,1296c-1.18,1.17-2.53,2.47-3.53,3.53l-1.77,1.85-1.47,1.77a41.58,41.58,0,0,0-4.88,7.85,42.35,42.35,0,0,0-1.23,32.92,42.47,42.47,0,0,0,6.76,11.91c2.65,3.15,5.3,5.89,7.3,8.15,3.5,3.88,5.67,6.38,6.17,7,0,0-.08-.06-.11-.09L636,1358.46a42.77,42.77,0,0,1-9.15-13.5,43.3,43.3,0,0,1,9.15-47.83l74.34-74.34A43,43,0,0,1,738,1210.23Z" transform="translate(0.5 -0.97)"/><path class="cls-10" d="M766.6,1218.46v0l-.05-.06S766.57,1218.43,766.6,1218.46Z" transform="translate(0.5 -0.97)"/><path class="cls-10" d="M771.63,1284.12,747,1308.8c.56-.7,4.56-6,10.86-13.23,3.38-3.92,7.41-8.39,11.79-13.09,1-1.18,2-2.42,3.09-3.62.8-1.3,1.74-2.44,2.53-3.8a35.12,35.12,0,0,0,2.24-4.2l1-2.18.76-2.27a40.53,40.53,0,0,0,2.09-9.29,46.61,46.61,0,0,0,0-9.3c-.09-.73-.17-1.5-.23-2.23s-.3-1.45-.44-2.18a31.89,31.89,0,0,0-1.06-4.15,30.61,30.61,0,0,0-1.39-3.85,28.75,28.75,0,0,0-1.58-3.5,62.3,62.3,0,0,0-3.53-5.86c-.59-.82-1.18-1.59-1.71-2.29a19.06,19.06,0,0,0-1.62-1.83c-1.79-1.94-2.91-3.17-3.15-3.44a39.87,39.87,0,0,1,5,4.3A43.34,43.34,0,0,1,771.63,1284.12Z" transform="translate(0.5 -0.97)"/><path class="cls-11" d="M736.63,1459.1l-51.25-51.22c.44.29,4.09,2.82,9,7,2.65,2.15,5.65,4.77,8.77,7.65,1.56,1.47,3.21,2.91,4.8,4.5s3.2,3.15,4.82,4.71c3.18,3.26,6.35,6.47,9.21,9.65s5.5,6.12,7.68,8.73C733.8,1455,736.33,1458.65,736.63,1459.1Z" transform="translate(0.5 -0.97)"/><path class="cls-11" d="M722.21,1336.78h0l.06-.06S722.21,1336.75,722.21,1336.78Z" transform="translate(0.5 -0.97)"/><path class="cls-11" d="M729.86,1448.54c-.41-.53-1.44-1.86-2.91-3.8l-3.5-4.74c-1.21-1.94-2.53-4.14-3.94-6.59a66.6,66.6,0,0,1-4.12-8.11,71.53,71.53,0,0,1-3.71-9.51,38.19,38.19,0,0,1-1.56-5.17c-.47-1.77-.91-3.56-1.32-5.39s-.59-3.7-.91-5.59a49.92,49.92,0,0,1-.68-5.64c-.12-1.89-.21-3.8-.29-5.68s.06-3.77.11-5.65a37.81,37.81,0,0,1,.42-5.53c.26-1.82.35-3.62.73-5.35s.65-3.48,1-5.15.88-3.27,1.3-4.83a77.92,77.92,0,0,1,3-8.65,76.29,76.29,0,0,1,3.17-7c1-2.06,2.06-3.73,2.86-5.17s1.59-2.45,2.06-3.18a9.75,9.75,0,0,1,.56-.8,98.13,98.13,0,0,0-5.15,10.8c-.3.71-.59,1.41-.85,2.15s-.56,1.5-.83,2.26a98.18,98.18,0,0,0-3.68,13c-.2.79-.35,1.58-.5,2.41-.32,1.56-.55,3.15-.79,4.79-.21,1.47-.38,3-.5,4.5a15.88,15.88,0,0,0-.15,1.68c-.09.91-.14,1.82-.17,2.77a99.57,99.57,0,0,0,3.23,30.21c.3,1.11.62,2.26,1,3.41.83,2.79,1.8,5.62,2.92,8.47.32.83.64,1.62,1,2.41s.7,1.71,1.08,2.56.77,1.71,1.18,2.56.82,1.74,1.27,2.59A131.55,131.55,0,0,0,729.86,1448.54Z" transform="translate(0.5 -0.97)"/><path class="cls-11" d="M760.49,1256.47c0,1.85-.06,3.68-.18,5.5-.06,1.27-.15,2.53-.27,3.77,0,.26,0,.53-.08.82-.12,1.12-.24,2.24-.42,3.32,0,.45-.11.92-.2,1.36-.18,1.32-.41,2.62-.68,3.91-.29,1.53-.62,3-1,4.5s-.76,3-1.21,4.41a84.13,84.13,0,0,1-3,8.51c.09-.39.3-1.45.65-3.06.47-2,1.06-4.89,1.68-8.3s1.2-7.44,1.59-11.71c.26-2.15.32-4.38.47-6.62s.17-4.53.14-6.82-.05-4.59-.17-6.83-.3-4.47-.53-6.61c-.47-4.3-1.09-8.27-1.71-11.71s-1.29-6.27-1.73-8.3c-.36-1.5-.59-2.53-.68-3,.59,1.41,1.15,2.85,1.68,4.3s1,2.91,1.47,4.38v.09c.38,1.23.73,2.47,1.06,3.7.14.53.29,1.06.41,1.59.26,1,.5,2.06.7,3.12.5,2.47.92,4.94,1.24,7.47.12,1,.24,2,.32,3s.18,2,.24,3,.12,2,.15,3.06S760.49,1255.44,760.49,1256.47Z" transform="translate(0.5 -0.97)"/><path class="cls-15" d="M686.18,1396.2l-31.3-31.33-2.44-2.7h-.3l-9.91-10a34.56,34.56,0,0,1,0-48.86L716.57,1229a34.25,34.25,0,0,1,22-10c.85-.06,1.62-.09,2.38-.09s1.5,0,2.24.09C654.55,1288.36,670,1360.49,686.18,1396.2Z" transform="translate(0.5 -0.97)"/></g></g></svg>